<?xml version="1.0" encoding="utf-8"?>
<!-- Generator: Adobe Illustrator 24.2.3, SVG Export Plug-In . SVG Version: 6.00 Build 0)  -->
<svg version="1.1" id="Layer_1" xmlns="http://www.w3.org/2000/svg" xmlns:xlink="http://www.w3.org/1999/xlink" x="0px" y="0px"
	 viewBox="0 0 139.58 10.13" style="enable-background:new 0 0 139.58 10.13;" xml:space="preserve">
<style type="text/css">
	.st0{fill:#9E9D9E;}
</style>
<g>
	<path class="st0" d="M3.88,2.77c-0.05,0-0.1,0-0.15,0.01C3.69,2.79,3.65,2.81,3.61,2.83C3.48,3.3,3.35,3.79,3.19,4.29
		C3.03,4.8,2.87,5.28,2.7,5.75C2.53,6.23,2.37,6.66,2.22,7.07H2.18C1.92,6.4,1.68,5.74,1.46,5.09C1.24,4.43,1.01,3.76,0.78,3.06
		C0.74,2.97,0.7,2.89,0.66,2.85C0.61,2.8,0.53,2.77,0.43,2.77c-0.08,0-0.15,0.02-0.22,0.06S0.1,2.91,0.07,2.95
		c0.08,0.26,0.17,0.56,0.28,0.9C0.46,4.19,0.58,4.54,0.71,4.9C0.84,5.26,0.97,5.61,1.1,5.95C1.23,6.3,1.35,6.61,1.47,6.89
		s0.21,0.5,0.3,0.66c0.03,0.06,0.08,0.1,0.16,0.13S2.1,7.73,2.2,7.73c0.09,0,0.17-0.01,0.25-0.04C2.52,7.67,2.57,7.64,2.6,7.62
		C2.67,7.49,2.75,7.3,2.86,7.05C2.96,6.8,3.07,6.52,3.19,6.2c0.12-0.32,0.24-0.64,0.36-0.97s0.23-0.65,0.32-0.94
		s0.18-0.56,0.24-0.78S4.2,3.14,4.2,3.06c0-0.1-0.03-0.17-0.09-0.22C4.05,2.8,3.98,2.77,3.88,2.77z"/>
	<path class="st0" d="M7.82,3.92c-0.05,0-0.1,0.01-0.15,0.02C7.62,3.95,7.58,3.97,7.54,3.98C7.47,4.31,7.38,4.66,7.26,5.04
		C7.15,5.41,7.03,5.77,6.91,6.1S6.67,6.72,6.56,6.94H6.53C6.31,6.47,6.12,6.01,5.94,5.57C5.77,5.12,5.6,4.68,5.44,4.23
		C5.4,4.12,5.35,4.04,5.3,3.99C5.24,3.94,5.16,3.92,5.07,3.92c-0.07,0-0.13,0.02-0.2,0.05C4.81,4,4.77,4.04,4.73,4.09
		c0.12,0.37,0.25,0.74,0.39,1.1c0.14,0.36,0.27,0.69,0.4,0.98c0.13,0.29,0.24,0.52,0.33,0.69c0.1,0.18,0.18,0.31,0.26,0.38
		c0.08,0.07,0.16,0.12,0.25,0.14c-0.08,0.18-0.2,0.36-0.33,0.56C5.88,8.13,5.74,8.31,5.6,8.48s-0.28,0.3-0.4,0.4
		c0.02,0.08,0.06,0.16,0.12,0.22c0.07,0.06,0.16,0.1,0.28,0.1c0.17,0,0.36-0.12,0.56-0.36C6.37,8.6,6.59,8.25,6.84,7.8
		c0.13-0.23,0.25-0.49,0.38-0.77s0.24-0.58,0.35-0.87c0.11-0.3,0.21-0.58,0.29-0.84c0.08-0.26,0.15-0.5,0.2-0.7
		c0.05-0.2,0.07-0.34,0.07-0.43c0-0.09-0.03-0.16-0.09-0.2C7.98,3.94,7.91,3.92,7.82,3.92z"/>
	<path class="st0" d="M10.92,7.1c-0.07,0.04-0.17,0.08-0.28,0.11c-0.11,0.03-0.21,0.05-0.3,0.05c-0.21,0-0.38-0.04-0.5-0.13
		C9.71,7.04,9.65,6.89,9.65,6.68V5.81V5.57V4.6h1.14c0.07,0,0.13-0.02,0.18-0.07c0.04-0.05,0.06-0.11,0.06-0.2
		c0-0.05-0.01-0.1-0.02-0.15c-0.02-0.05-0.03-0.08-0.05-0.1H9.65V3.15c0-0.1-0.03-0.17-0.08-0.22S9.42,2.86,9.31,2.86
		c-0.06,0-0.12,0.01-0.18,0.02C9.08,2.9,9.03,2.91,9.01,2.92v2.66v0.24v0.9c0,0.38,0.12,0.66,0.35,0.82
		c0.23,0.17,0.53,0.25,0.91,0.25c0.25,0,0.44-0.04,0.58-0.11c0.14-0.08,0.21-0.17,0.21-0.29c0-0.06-0.01-0.12-0.04-0.17
		C10.98,7.17,10.95,7.13,10.92,7.1z"/>
	<path class="st0" d="M14.78,3.92c-0.11,0-0.2,0.02-0.27,0.06c-0.13,0.5-0.29,1.01-0.48,1.54c-0.19,0.53-0.39,1.06-0.6,1.6h-0.03
		c-0.04-0.12-0.1-0.27-0.17-0.46s-0.14-0.36-0.21-0.54s-0.13-0.33-0.17-0.46l-0.5-1.43c-0.04-0.11-0.08-0.19-0.14-0.24
		c-0.05-0.05-0.13-0.07-0.22-0.07c-0.06,0-0.13,0.02-0.19,0.05C11.74,4,11.69,4.04,11.65,4.09c0.06,0.2,0.13,0.43,0.22,0.68
		c0.09,0.26,0.19,0.53,0.3,0.81c0.11,0.28,0.22,0.55,0.32,0.81c0.11,0.26,0.21,0.49,0.3,0.7c0.09,0.21,0.17,0.36,0.23,0.47
		c0.03,0.05,0.07,0.09,0.14,0.12s0.15,0.04,0.24,0.04c0.07,0,0.15-0.01,0.21-0.02c0.07-0.02,0.11-0.03,0.14-0.06
		c0.1-0.2,0.21-0.43,0.33-0.7c0.12-0.27,0.24-0.55,0.35-0.84c0.11-0.29,0.22-0.57,0.32-0.84c0.1-0.27,0.17-0.5,0.23-0.69
		c0.06-0.19,0.09-0.32,0.09-0.39c0-0.09-0.03-0.16-0.08-0.21C14.94,3.94,14.87,3.92,14.78,3.92z"/>
	<path class="st0" d="M18.47,4.13c-0.27-0.16-0.59-0.24-0.95-0.24s-0.68,0.08-0.96,0.24c-0.27,0.16-0.49,0.39-0.64,0.68
		c-0.15,0.29-0.23,0.64-0.23,1.04c0,0.4,0.07,0.74,0.22,1.03c0.15,0.29,0.36,0.52,0.64,0.68c0.27,0.16,0.6,0.24,0.96,0.24
		c0.37,0,0.69-0.08,0.96-0.24c0.27-0.16,0.48-0.39,0.63-0.68c0.15-0.29,0.22-0.64,0.22-1.03c0-0.4-0.08-0.75-0.23-1.04
		C18.96,4.51,18.74,4.29,18.47,4.13z M18.37,6.88c-0.21,0.25-0.49,0.38-0.85,0.38c-0.37,0-0.65-0.13-0.86-0.38
		c-0.21-0.25-0.31-0.6-0.31-1.05c0-0.44,0.11-0.79,0.32-1.04c0.21-0.25,0.49-0.38,0.85-0.38c0.36,0,0.65,0.13,0.85,0.38
		c0.21,0.25,0.31,0.6,0.31,1.04C18.68,6.28,18.58,6.63,18.37,6.88z"/>
	<path class="st0" d="M21.99,3.89c-0.29,0-0.56,0.03-0.8,0.1c-0.24,0.07-0.43,0.15-0.57,0.24c-0.11,0.07-0.18,0.14-0.23,0.21
		c-0.05,0.07-0.07,0.17-0.07,0.29v0.85v0.37v1.5c0,0.1,0.03,0.17,0.09,0.22s0.14,0.07,0.26,0.07c0.06,0,0.12-0.01,0.18-0.02
		c0.05-0.01,0.09-0.03,0.12-0.04V5.94V5.67V4.68c0.12-0.07,0.28-0.13,0.46-0.18c0.19-0.05,0.4-0.08,0.65-0.08
		c0.08,0,0.17,0.01,0.26,0.02s0.15,0.02,0.21,0.03c0.03-0.03,0.05-0.07,0.06-0.12s0.02-0.09,0.02-0.15
		C22.63,3.99,22.42,3.89,21.99,3.89z"/>
	<path class="st0" d="M25.73,4.09c-0.25-0.14-0.53-0.21-0.86-0.21c-0.26,0-0.49,0.04-0.71,0.13S23.75,4.23,23.6,4.4
		c-0.16,0.17-0.28,0.37-0.37,0.6S23.1,5.51,23.1,5.81c0,0.43,0.08,0.79,0.24,1.08c0.16,0.3,0.39,0.52,0.7,0.67s0.66,0.22,1.07,0.22
		c0.23,0,0.45-0.03,0.64-0.08c0.19-0.05,0.34-0.12,0.46-0.21c0.11-0.09,0.17-0.18,0.17-0.28c0-0.06-0.02-0.12-0.05-0.17
		s-0.08-0.09-0.14-0.13C26.07,7,25.92,7.07,25.74,7.15c-0.18,0.07-0.38,0.11-0.61,0.11c-0.42,0-0.75-0.11-1-0.33
		c-0.19-0.17-0.3-0.42-0.36-0.72l2.44-0.34c0.1-0.01,0.17-0.04,0.22-0.09c0.05-0.05,0.08-0.13,0.08-0.25c0-0.32-0.07-0.6-0.21-0.85
		C26.17,4.43,25.98,4.23,25.73,4.09z M23.73,5.71c0.01-0.4,0.11-0.73,0.31-0.95c0.22-0.24,0.49-0.36,0.82-0.36
		c0.32,0,0.57,0.09,0.75,0.28c0.18,0.19,0.28,0.43,0.3,0.72L23.73,5.71z"/>
	<path class="st0" d="M29.09,3.89c-0.29,0-0.55,0.04-0.78,0.11c-0.23,0.07-0.41,0.15-0.55,0.23c-0.11,0.07-0.19,0.14-0.24,0.21
		c-0.05,0.07-0.07,0.16-0.07,0.28v0.91v0.44v1.38c0,0.1,0.03,0.17,0.09,0.22s0.14,0.07,0.26,0.07c0.06,0,0.12-0.01,0.18-0.02
		c0.05-0.01,0.09-0.03,0.12-0.04V6.06V5.62V4.68c0.12-0.07,0.26-0.13,0.42-0.18c0.17-0.05,0.35-0.08,0.57-0.08
		c0.28,0,0.51,0.07,0.68,0.21s0.25,0.36,0.25,0.66v0.34v0.44v1.38c0,0.1,0.03,0.17,0.08,0.22c0.06,0.04,0.14,0.07,0.26,0.07
		c0.06,0,0.12-0.01,0.17-0.02c0.06-0.01,0.1-0.03,0.12-0.04V6.06V5.62V5.25c0-0.46-0.14-0.81-0.42-1.03
		C29.96,4,29.57,3.89,29.09,3.89z"/>
	<path class="st0" d="M33.55,3.56l0.73-0.71c0.07-0.07,0.13-0.13,0.16-0.18c0.03-0.05,0.05-0.11,0.05-0.18
		c0-0.07-0.04-0.14-0.11-0.2c-0.07-0.06-0.17-0.09-0.28-0.1l-0.78,0.87c-0.03,0.03-0.05,0.07-0.08,0.1S33.2,3.24,33.2,3.29
		c0,0.07,0.03,0.13,0.1,0.19S33.45,3.56,33.55,3.56z"/>
	<path class="st0" d="M34.28,4.09c-0.25-0.14-0.53-0.21-0.86-0.21c-0.26,0-0.49,0.04-0.71,0.13S32.3,4.23,32.15,4.4
		c-0.16,0.17-0.28,0.37-0.37,0.6s-0.13,0.51-0.13,0.81c0,0.43,0.08,0.79,0.24,1.08c0.16,0.3,0.39,0.52,0.7,0.67s0.66,0.22,1.07,0.22
		c0.23,0,0.45-0.03,0.64-0.08c0.19-0.05,0.34-0.12,0.46-0.21c0.11-0.09,0.17-0.18,0.17-0.28c0-0.06-0.02-0.12-0.05-0.17
		s-0.08-0.09-0.14-0.13C34.62,7,34.48,7.07,34.3,7.15c-0.18,0.07-0.38,0.11-0.61,0.11c-0.42,0-0.75-0.11-1-0.33
		c-0.19-0.17-0.3-0.42-0.36-0.72l2.44-0.34c0.1-0.01,0.17-0.04,0.22-0.09c0.05-0.05,0.08-0.13,0.08-0.25c0-0.32-0.07-0.6-0.21-0.85
		C34.73,4.43,34.53,4.23,34.28,4.09z M32.28,5.71c0.01-0.4,0.11-0.73,0.31-0.95c0.22-0.24,0.49-0.36,0.82-0.36
		c0.32,0,0.57,0.09,0.75,0.28c0.18,0.19,0.28,0.43,0.3,0.72L32.28,5.71z"/>
	<path class="st0" d="M39.13,5.57l-0.55-0.14c-0.18-0.04-0.31-0.11-0.4-0.2c-0.08-0.09-0.12-0.19-0.12-0.31
		c0-0.17,0.07-0.29,0.22-0.38c0.14-0.09,0.33-0.14,0.57-0.14c0.16,0,0.31,0.02,0.44,0.05c0.13,0.04,0.25,0.08,0.35,0.13
		s0.18,0.1,0.24,0.14c0.06-0.03,0.11-0.07,0.14-0.12c0.04-0.05,0.05-0.11,0.05-0.18c0-0.1-0.05-0.19-0.16-0.27
		c-0.1-0.08-0.25-0.15-0.44-0.2c-0.19-0.05-0.41-0.08-0.66-0.08c-0.47,0-0.82,0.1-1.05,0.31c-0.23,0.21-0.34,0.45-0.34,0.74
		c0,0.25,0.07,0.46,0.22,0.63c0.15,0.17,0.39,0.29,0.71,0.37l0.66,0.18c0.18,0.04,0.32,0.11,0.41,0.21c0.09,0.1,0.14,0.23,0.14,0.38
		c0,0.37-0.28,0.56-0.83,0.56c-0.25,0-0.46-0.04-0.66-0.13c-0.19-0.09-0.36-0.18-0.5-0.28C37.51,6.89,37.46,6.94,37.43,7
		c-0.03,0.06-0.05,0.12-0.05,0.19c0,0.15,0.13,0.29,0.38,0.41c0.26,0.12,0.59,0.19,0.99,0.19c0.47,0,0.84-0.1,1.09-0.29
		c0.25-0.19,0.38-0.46,0.38-0.8c0-0.3-0.09-0.54-0.27-0.72C39.76,5.79,39.49,5.66,39.13,5.57z"/>
	<path class="st0" d="M45.23,4.09c-0.29-0.14-0.6-0.2-0.96-0.2c-0.26,0-0.48,0.03-0.68,0.1c-0.2,0.07-0.37,0.14-0.52,0.22
		c-0.12,0.07-0.19,0.14-0.23,0.2c-0.04,0.06-0.06,0.15-0.06,0.26v2.41V7.3v1.58c0,0.1,0.03,0.18,0.09,0.22
		c0.06,0.05,0.14,0.07,0.26,0.07c0.06,0,0.12-0.01,0.18-0.02c0.05-0.01,0.09-0.03,0.12-0.04V7.56c0.08,0.04,0.17,0.09,0.29,0.13
		c0.2,0.07,0.41,0.1,0.64,0.1c0.35,0,0.66-0.07,0.94-0.22c0.27-0.14,0.48-0.36,0.64-0.65c0.15-0.29,0.23-0.65,0.23-1.09
		c0-0.45-0.08-0.82-0.25-1.11S45.51,4.23,45.23,4.09z M45.17,6.92c-0.23,0.23-0.53,0.34-0.9,0.34c-0.23,0-0.42-0.04-0.59-0.12
		c-0.1-0.05-0.18-0.11-0.26-0.17V4.65c0.11-0.06,0.23-0.11,0.36-0.16c0.13-0.05,0.3-0.07,0.49-0.07c0.22,0,0.42,0.05,0.61,0.14
		c0.19,0.09,0.34,0.24,0.46,0.44c0.11,0.21,0.17,0.48,0.17,0.84C45.51,6.33,45.4,6.7,45.17,6.92z"/>
	<path class="st0" d="M49.72,4.13c-0.27-0.16-0.59-0.24-0.95-0.24c-0.36,0-0.68,0.08-0.96,0.24s-0.49,0.39-0.64,0.68
		c-0.15,0.29-0.23,0.64-0.23,1.04c0,0.4,0.08,0.74,0.22,1.03s0.36,0.52,0.64,0.68c0.27,0.16,0.6,0.24,0.96,0.24s0.69-0.08,0.96-0.24
		c0.27-0.16,0.48-0.39,0.63-0.68s0.22-0.64,0.22-1.03c0-0.4-0.08-0.75-0.23-1.04C50.2,4.51,49.99,4.29,49.72,4.13z M49.62,6.88
		c-0.21,0.25-0.49,0.38-0.85,0.38c-0.37,0-0.65-0.13-0.86-0.38c-0.21-0.25-0.31-0.6-0.31-1.05c0-0.44,0.11-0.79,0.32-1.04
		c0.21-0.25,0.49-0.38,0.85-0.38c0.36,0,0.65,0.13,0.85,0.38c0.21,0.25,0.31,0.6,0.31,1.04C49.93,6.28,49.82,6.63,49.62,6.88z"/>
	<path class="st0" d="M54.39,2.45c-0.06,0-0.12,0.01-0.17,0.02c-0.06,0.01-0.1,0.03-0.12,0.04v1.61C54,4.06,53.9,4.01,53.77,3.97
		c-0.19-0.06-0.38-0.09-0.59-0.09c-0.33,0-0.63,0.07-0.91,0.2c-0.28,0.14-0.5,0.35-0.66,0.64c-0.16,0.29-0.24,0.66-0.24,1.13
		c0,0.45,0.08,0.82,0.25,1.11c0.17,0.29,0.39,0.5,0.69,0.63c0.29,0.13,0.63,0.2,1.02,0.2c0.26,0,0.48-0.03,0.68-0.09
		c0.2-0.06,0.35-0.13,0.46-0.2c0.1-0.06,0.17-0.12,0.21-0.18c0.04-0.06,0.07-0.14,0.07-0.24V4.52V4.36V2.73
		c0-0.1-0.03-0.17-0.08-0.22C54.6,2.47,54.51,2.45,54.39,2.45z M53.77,7.2c-0.12,0.04-0.27,0.06-0.46,0.06
		c-0.39,0-0.7-0.11-0.94-0.33c-0.24-0.22-0.35-0.57-0.35-1.06c0-0.36,0.06-0.64,0.17-0.86s0.26-0.37,0.45-0.46s0.39-0.14,0.61-0.14
		c0.22,0,0.41,0.04,0.57,0.11c0.11,0.05,0.19,0.12,0.28,0.18v2.35C54,7.11,53.89,7.16,53.77,7.2z"/>
	<path class="st0" d="M58.4,4.09c-0.29-0.14-0.6-0.2-0.96-0.2c-0.26,0-0.48,0.03-0.68,0.1c-0.2,0.07-0.37,0.14-0.52,0.22
		c-0.12,0.07-0.19,0.14-0.23,0.2c-0.04,0.06-0.06,0.15-0.06,0.26v2.41V7.3v1.58c0,0.1,0.03,0.18,0.09,0.22
		c0.06,0.05,0.14,0.07,0.26,0.07c0.06,0,0.12-0.01,0.18-0.02c0.05-0.01,0.09-0.03,0.12-0.04V7.56c0.08,0.04,0.17,0.09,0.29,0.13
		c0.2,0.07,0.41,0.1,0.64,0.1c0.35,0,0.66-0.07,0.94-0.22c0.27-0.14,0.48-0.36,0.64-0.65c0.15-0.29,0.23-0.65,0.23-1.09
		c0-0.45-0.08-0.82-0.25-1.11S58.68,4.23,58.4,4.09z M58.34,6.92c-0.23,0.23-0.53,0.34-0.9,0.34c-0.23,0-0.42-0.04-0.59-0.12
		c-0.1-0.05-0.18-0.11-0.26-0.17V4.65c0.11-0.06,0.23-0.11,0.36-0.16c0.13-0.05,0.3-0.07,0.49-0.07c0.22,0,0.42,0.05,0.61,0.14
		c0.19,0.09,0.34,0.24,0.46,0.44c0.11,0.21,0.17,0.48,0.17,0.84C58.68,6.33,58.57,6.7,58.34,6.92z"/>
	<path class="st0" d="M62.89,4.13c-0.27-0.16-0.59-0.24-0.95-0.24c-0.36,0-0.68,0.08-0.96,0.24s-0.49,0.39-0.64,0.68
		c-0.15,0.29-0.23,0.64-0.23,1.04c0,0.4,0.08,0.74,0.22,1.03s0.36,0.52,0.64,0.68c0.27,0.16,0.6,0.24,0.96,0.24s0.69-0.08,0.96-0.24
		c0.27-0.16,0.48-0.39,0.63-0.68s0.22-0.64,0.22-1.03c0-0.4-0.08-0.75-0.23-1.04C63.37,4.51,63.16,4.29,62.89,4.13z M62.79,6.88
		c-0.21,0.25-0.49,0.38-0.85,0.38c-0.37,0-0.65-0.13-0.86-0.38c-0.21-0.25-0.31-0.6-0.31-1.05c0-0.44,0.11-0.79,0.32-1.04
		c0.21-0.25,0.49-0.38,0.85-0.38c0.36,0,0.65,0.13,0.85,0.38c0.21,0.25,0.31,0.6,0.31,1.04C63.1,6.28,62.99,6.63,62.79,6.88z"/>
	<path class="st0" d="M66.41,3.89c-0.29,0-0.56,0.03-0.8,0.1c-0.24,0.07-0.43,0.15-0.57,0.24c-0.11,0.07-0.18,0.14-0.23,0.21
		c-0.04,0.07-0.07,0.17-0.07,0.29v0.85v0.37v1.5c0,0.1,0.03,0.17,0.09,0.22c0.06,0.04,0.14,0.07,0.26,0.07
		c0.06,0,0.12-0.01,0.18-0.02c0.05-0.01,0.09-0.03,0.12-0.04V5.94V5.67V4.68c0.12-0.07,0.28-0.13,0.46-0.18s0.4-0.08,0.65-0.08
		c0.09,0,0.17,0.01,0.26,0.02c0.08,0.01,0.15,0.02,0.21,0.03c0.03-0.03,0.05-0.07,0.06-0.12c0.02-0.05,0.02-0.09,0.02-0.15
		C67.05,3.99,66.83,3.89,66.41,3.89z"/>
	<path class="st0" d="M70.29,4.13c-0.27-0.16-0.59-0.24-0.95-0.24c-0.36,0-0.68,0.08-0.96,0.24s-0.49,0.39-0.64,0.68
		c-0.15,0.29-0.23,0.64-0.23,1.04c0,0.4,0.08,0.74,0.22,1.03s0.36,0.52,0.64,0.68c0.27,0.16,0.6,0.24,0.96,0.24s0.69-0.08,0.96-0.24
		c0.27-0.16,0.48-0.39,0.63-0.68s0.22-0.64,0.22-1.03c0-0.4-0.08-0.75-0.23-1.04C70.77,4.51,70.56,4.29,70.29,4.13z M70.19,6.88
		c-0.21,0.25-0.49,0.38-0.85,0.38c-0.37,0-0.65-0.13-0.86-0.38c-0.21-0.25-0.31-0.6-0.31-1.05c0-0.44,0.11-0.79,0.32-1.04
		c0.21-0.25,0.49-0.38,0.85-0.38c0.36,0,0.65,0.13,0.85,0.38c0.21,0.25,0.31,0.6,0.31,1.04C70.49,6.28,70.39,6.63,70.19,6.88z"/>
	<path class="st0" d="M75.26,4.02C75.2,3.97,75.12,3.95,75,3.95c-0.06,0-0.12,0.01-0.17,0.02C74.77,3.98,74.73,4,74.7,4.01v1.6v0.42
		v1.03c-0.09,0.05-0.2,0.09-0.35,0.14s-0.33,0.07-0.54,0.07c-0.32,0-0.57-0.08-0.75-0.22c-0.18-0.15-0.27-0.39-0.27-0.74V6.02V5.61
		V4.25c0-0.11-0.03-0.18-0.08-0.23c-0.06-0.05-0.14-0.07-0.25-0.07c-0.06,0-0.12,0.01-0.18,0.02c-0.06,0.01-0.1,0.03-0.12,0.04v1.6
		v0.42v0.31c0,0.33,0.06,0.6,0.19,0.82s0.32,0.38,0.56,0.48c0.25,0.1,0.55,0.16,0.9,0.16c0.3,0,0.57-0.03,0.78-0.1
		c0.22-0.06,0.39-0.13,0.5-0.2c0.11-0.06,0.18-0.13,0.21-0.2c0.03-0.07,0.04-0.16,0.04-0.27V6.02V5.61V4.25
		C75.34,4.14,75.31,4.06,75.26,4.02z"/>
	<path class="st0" d="M129.3,8.13V7.64h-3.56V5.22h3.14V4.73h-3.14v-2.2h3.48V2.04h-4.05v6.09H129.3z M130.55,8.13V5.44h1.3
		c0.28,0,0.56-0.02,0.84-0.08c0.28-0.05,0.53-0.14,0.75-0.27c0.22-0.13,0.4-0.3,0.54-0.52c0.14-0.22,0.21-0.5,0.21-0.84
		c0-0.23-0.03-0.44-0.09-0.65c-0.06-0.21-0.16-0.39-0.31-0.55c-0.15-0.16-0.35-0.28-0.61-0.37c-0.26-0.09-0.58-0.13-0.98-0.13h-2.23
		v6.09H130.55z M130.55,4.95V2.53h1.49c0.55,0,0.95,0.1,1.2,0.3c0.25,0.2,0.38,0.49,0.38,0.87c0,0.26-0.04,0.47-0.12,0.63
		c-0.08,0.16-0.2,0.29-0.35,0.38c-0.15,0.09-0.33,0.16-0.54,0.19c-0.21,0.03-0.46,0.05-0.73,0.05H130.55z M135.4,8.13V5.14H139v2.99
		h0.58V2.04H139v2.61h-3.61V2.04h-0.58v6.09H135.4z"/>
	<path class="st0" d="M83.48,4.88c0.7,0,1.26-0.57,1.26-1.26c0-0.7-0.57-1.26-1.26-1.26c-1.68,0-3.28,2.21-3.62,2.71
		c0.23,0.34,1.06,1.49,2.1,2.18c-0.07-0.24-0.11-0.48-0.11-0.73C81.85,5.61,82.59,4.88,83.48,4.88"/>
	<path class="st0" d="M90,5.07c-0.23-0.34-1.06-1.49-2.1-2.18c0.07,0.24,0.11,0.48,0.11,0.73c0,0.9-0.73,1.63-1.63,1.63
		c-0.7,0-1.26,0.57-1.26,1.26c0,0.7,0.57,1.26,1.26,1.26C88.06,7.78,89.66,5.56,90,5.07"/>
	<path class="st0" d="M87.64,3.62c0-1.68-2.21-3.28-2.71-3.62c-0.34,0.23-1.49,1.06-2.18,2.1c0.24-0.07,0.48-0.11,0.73-0.11
		c0.9,0,1.63,0.73,1.63,1.63c0,0.7,0.57,1.26,1.26,1.26C87.07,4.88,87.64,4.32,87.64,3.62"/>
	<path class="st0" d="M84.93,10.13c0.34-0.23,1.49-1.06,2.18-2.1c-0.24,0.07-0.48,0.11-0.73,0.11c-0.9,0-1.63-0.73-1.63-1.63
		c0-0.7-0.57-1.26-1.26-1.26c-0.7,0-1.26,0.57-1.26,1.26C82.22,8.19,84.43,9.79,84.93,10.13"/>
	<polygon class="st0" points="93.77,2.82 93.76,2.82 93.76,8.13 93.18,8.13 93.18,2.04 93.83,2.04 97.35,7.36 97.37,7.36 
		97.37,2.04 97.94,2.04 97.94,8.13 97.27,8.13 	"/>
	<g>
		<g>
			<path class="st0" d="M101.8,5.83c-0.21,0.09-0.43,0.15-0.65,0.18c-0.22,0.03-0.44,0.05-0.66,0.07c-0.39,0.03-0.69,0.12-0.91,0.26
				c-0.22,0.15-0.33,0.37-0.33,0.67c0,0.14,0.03,0.25,0.08,0.35c0.05,0.1,0.12,0.18,0.21,0.25c0.09,0.06,0.19,0.11,0.3,0.14
				c0.12,0.03,0.23,0.05,0.35,0.05c0.2,0,0.4-0.03,0.59-0.08c0.19-0.05,0.36-0.13,0.51-0.23c0.15-0.1,0.27-0.24,0.36-0.4
				c0.09-0.16,0.14-0.35,0.14-0.57V5.83z M100.95,5.58c0.1-0.01,0.21-0.03,0.34-0.05c0.13-0.02,0.24-0.05,0.33-0.09
				c0.08-0.04,0.14-0.11,0.16-0.2c0.02-0.09,0.03-0.18,0.03-0.26c0-0.26-0.08-0.47-0.25-0.64c-0.17-0.17-0.45-0.25-0.84-0.25
				c-0.17,0-0.34,0.02-0.48,0.05c-0.15,0.03-0.27,0.08-0.38,0.16c-0.11,0.08-0.2,0.18-0.27,0.3c-0.07,0.13-0.12,0.29-0.14,0.48
				h-0.52c0.02-0.26,0.08-0.48,0.18-0.66c0.1-0.18,0.23-0.33,0.39-0.45c0.16-0.12,0.35-0.2,0.56-0.25c0.21-0.05,0.44-0.08,0.67-0.08
				c0.22,0,0.43,0.02,0.62,0.07c0.19,0.05,0.36,0.12,0.51,0.23c0.14,0.1,0.26,0.24,0.34,0.42c0.08,0.17,0.12,0.39,0.12,0.64v2.39
				c0,0.2,0.04,0.32,0.11,0.38c0.07,0.05,0.21,0.04,0.43-0.04v0.4c-0.04,0.01-0.1,0.03-0.17,0.05c-0.08,0.02-0.15,0.03-0.22,0.03
				c-0.08,0-0.16-0.01-0.23-0.03c-0.08-0.01-0.15-0.04-0.2-0.08c-0.05-0.04-0.09-0.09-0.12-0.15c-0.03-0.06-0.05-0.12-0.06-0.19
				c-0.01-0.07-0.02-0.15-0.02-0.22c-0.21,0.24-0.46,0.42-0.74,0.54c-0.28,0.12-0.58,0.19-0.9,0.19c-0.19,0-0.38-0.03-0.55-0.08
				c-0.18-0.05-0.33-0.13-0.47-0.24c-0.14-0.11-0.24-0.24-0.32-0.39c-0.08-0.16-0.12-0.34-0.12-0.55c0-0.74,0.51-1.18,1.53-1.32
				L100.95,5.58z"/>
			<path class="st0" d="M106.72,5.92c0-0.25-0.03-0.48-0.1-0.71c-0.07-0.22-0.17-0.42-0.29-0.58c-0.13-0.17-0.28-0.3-0.47-0.4
				c-0.18-0.1-0.39-0.15-0.62-0.15c-0.27,0-0.49,0.05-0.69,0.16c-0.19,0.1-0.35,0.25-0.47,0.43c-0.12,0.18-0.21,0.39-0.27,0.63
				c-0.06,0.24-0.08,0.5-0.07,0.77c0,0.28,0.04,0.52,0.11,0.73c0.08,0.21,0.18,0.39,0.32,0.54c0.14,0.15,0.29,0.26,0.47,0.33
				c0.18,0.08,0.38,0.11,0.59,0.11c0.24,0,0.45-0.05,0.63-0.14c0.19-0.1,0.34-0.23,0.47-0.39c0.12-0.17,0.22-0.36,0.28-0.59
				C106.69,6.43,106.72,6.19,106.72,5.92 M106.72,2.04h0.51v6.09h-0.51V7.36h-0.02c-0.07,0.15-0.17,0.27-0.28,0.38
				c-0.12,0.11-0.24,0.2-0.38,0.27c-0.14,0.07-0.28,0.13-0.43,0.17c-0.15,0.04-0.29,0.06-0.43,0.06c-0.36,0-0.66-0.06-0.9-0.18
				c-0.25-0.12-0.45-0.28-0.61-0.49c-0.16-0.21-0.28-0.45-0.35-0.73c-0.07-0.28-0.11-0.58-0.11-0.9c0-0.3,0.04-0.6,0.12-0.88
				c0.08-0.28,0.2-0.53,0.36-0.74c0.16-0.21,0.36-0.38,0.61-0.51c0.25-0.13,0.53-0.19,0.87-0.19c0.31,0,0.61,0.07,0.89,0.21
				c0.28,0.14,0.51,0.34,0.67,0.61V2.04z"/>
			<path class="st0" d="M109.47,3.28l0.94-1.18h0.65l-1.16,1.18H109.47z M111.08,5.83c-0.21,0.09-0.43,0.15-0.65,0.18
				c-0.22,0.03-0.44,0.05-0.66,0.07c-0.39,0.03-0.69,0.12-0.91,0.26c-0.22,0.15-0.33,0.37-0.33,0.67c0,0.14,0.03,0.25,0.08,0.35
				c0.05,0.1,0.12,0.18,0.21,0.25c0.09,0.06,0.19,0.11,0.3,0.14c0.12,0.03,0.23,0.05,0.35,0.05c0.2,0,0.4-0.03,0.59-0.08
				c0.19-0.05,0.36-0.13,0.51-0.23c0.15-0.1,0.27-0.24,0.36-0.4c0.09-0.16,0.14-0.35,0.14-0.57V5.83z M110.22,5.58
				c0.1-0.01,0.21-0.03,0.34-0.05c0.13-0.02,0.24-0.05,0.33-0.09c0.08-0.04,0.14-0.11,0.16-0.2c0.02-0.09,0.03-0.18,0.03-0.26
				c0-0.26-0.08-0.47-0.25-0.64c-0.17-0.17-0.45-0.25-0.84-0.25c-0.17,0-0.34,0.02-0.48,0.05c-0.15,0.03-0.27,0.08-0.38,0.16
				c-0.11,0.08-0.2,0.18-0.27,0.3c-0.07,0.13-0.12,0.29-0.14,0.48h-0.52c0.02-0.26,0.08-0.48,0.18-0.66
				c0.1-0.18,0.23-0.33,0.39-0.45c0.16-0.12,0.35-0.2,0.56-0.25c0.21-0.05,0.44-0.08,0.67-0.08c0.22,0,0.43,0.02,0.62,0.07
				c0.19,0.05,0.36,0.12,0.51,0.23c0.14,0.1,0.26,0.24,0.34,0.42c0.08,0.17,0.12,0.39,0.12,0.64v2.39c0,0.2,0.04,0.32,0.11,0.38
				c0.07,0.05,0.21,0.04,0.43-0.04v0.4c-0.04,0.01-0.1,0.03-0.17,0.05c-0.08,0.02-0.15,0.03-0.22,0.03c-0.08,0-0.16-0.01-0.23-0.03
				c-0.08-0.01-0.15-0.04-0.2-0.08c-0.05-0.04-0.09-0.09-0.12-0.15c-0.03-0.06-0.05-0.12-0.06-0.19c-0.01-0.07-0.02-0.15-0.02-0.22
				c-0.21,0.24-0.46,0.42-0.74,0.54c-0.28,0.12-0.58,0.19-0.9,0.19c-0.19,0-0.38-0.03-0.55-0.08c-0.18-0.05-0.33-0.13-0.47-0.24
				c-0.14-0.11-0.24-0.24-0.32-0.39c-0.08-0.16-0.12-0.34-0.12-0.55c0-0.74,0.51-1.18,1.53-1.32L110.22,5.58z"/>
			<path class="st0" d="M115.72,5.13c-0.09-0.33-0.25-0.58-0.46-0.77c-0.22-0.18-0.5-0.27-0.84-0.27c-0.26,0-0.48,0.05-0.67,0.16
				c-0.19,0.11-0.34,0.25-0.46,0.43c-0.12,0.18-0.21,0.38-0.26,0.6c-0.06,0.22-0.08,0.45-0.08,0.67c0,0.23,0.03,0.46,0.08,0.68
				c0.05,0.22,0.14,0.42,0.26,0.59c0.12,0.17,0.27,0.31,0.46,0.42c0.19,0.1,0.41,0.16,0.68,0.16c0.38,0,0.68-0.1,0.91-0.31
				c0.23-0.21,0.37-0.5,0.44-0.86h0.54c-0.05,0.24-0.12,0.46-0.22,0.66c-0.1,0.2-0.23,0.37-0.38,0.52
				c-0.16,0.14-0.34,0.26-0.55,0.33c-0.21,0.08-0.46,0.12-0.74,0.12c-0.35,0-0.65-0.06-0.9-0.18c-0.25-0.12-0.46-0.28-0.63-0.49
				c-0.16-0.21-0.29-0.45-0.36-0.73c-0.08-0.28-0.12-0.58-0.12-0.9c0-0.3,0.04-0.6,0.13-0.88c0.09-0.28,0.22-0.53,0.38-0.74
				c0.17-0.21,0.38-0.38,0.63-0.51c0.25-0.13,0.54-0.19,0.87-0.19c0.51,0,0.92,0.12,1.23,0.36c0.31,0.24,0.51,0.62,0.59,1.13H115.72
				z"/>
		</g>
	</g>
	<path class="st0" d="M117.1,3.75h0.51v4.38h-0.51V3.75z M117.07,2.04h0.56v0.75h-0.56V2.04z"/>
	<g>
		<g>
			<path class="st0" d="M121.47,5.83c-0.21,0.09-0.43,0.15-0.65,0.18c-0.22,0.03-0.44,0.05-0.66,0.07
				c-0.39,0.03-0.69,0.12-0.91,0.26c-0.22,0.15-0.33,0.37-0.33,0.67c0,0.14,0.03,0.25,0.08,0.35c0.05,0.1,0.12,0.18,0.21,0.25
				c0.09,0.06,0.19,0.11,0.3,0.14c0.12,0.03,0.23,0.05,0.35,0.05c0.2,0,0.4-0.03,0.59-0.08c0.19-0.05,0.36-0.13,0.51-0.23
				c0.15-0.1,0.27-0.24,0.36-0.4c0.09-0.16,0.14-0.35,0.14-0.57V5.83z M120.62,5.58c0.1-0.01,0.21-0.03,0.34-0.05
				c0.13-0.02,0.24-0.05,0.33-0.09c0.08-0.04,0.14-0.11,0.16-0.2c0.02-0.09,0.03-0.18,0.03-0.26c0-0.26-0.08-0.47-0.25-0.64
				c-0.17-0.17-0.45-0.25-0.84-0.25c-0.17,0-0.34,0.02-0.48,0.05c-0.15,0.03-0.27,0.08-0.38,0.16c-0.11,0.08-0.2,0.18-0.27,0.3
				c-0.07,0.13-0.12,0.29-0.14,0.48h-0.52c0.02-0.26,0.08-0.48,0.18-0.66c0.1-0.18,0.23-0.33,0.39-0.45
				c0.16-0.12,0.35-0.2,0.56-0.25c0.21-0.05,0.44-0.08,0.67-0.08c0.22,0,0.43,0.02,0.62,0.07c0.19,0.05,0.36,0.12,0.51,0.23
				s0.26,0.24,0.34,0.42c0.08,0.17,0.12,0.39,0.12,0.64v2.39c0,0.2,0.04,0.32,0.11,0.38c0.07,0.05,0.21,0.04,0.43-0.04v0.4
				c-0.04,0.01-0.1,0.03-0.17,0.05c-0.08,0.02-0.15,0.03-0.22,0.03c-0.08,0-0.16-0.01-0.23-0.03c-0.08-0.01-0.15-0.04-0.2-0.08
				c-0.05-0.04-0.09-0.09-0.12-0.15c-0.03-0.06-0.05-0.12-0.06-0.19c-0.01-0.07-0.02-0.15-0.02-0.22c-0.21,0.24-0.46,0.42-0.74,0.54
				c-0.28,0.12-0.58,0.19-0.9,0.19c-0.19,0-0.38-0.03-0.55-0.08c-0.18-0.05-0.33-0.13-0.47-0.24c-0.14-0.11-0.24-0.24-0.32-0.39
				c-0.08-0.16-0.12-0.34-0.12-0.55c0-0.74,0.51-1.18,1.53-1.32L120.62,5.58z"/>
		</g>
	</g>
</g>
</svg>
