<?xml version="1.0" encoding="utf-8"?>
<!-- Generator: Adobe Illustrator 24.2.3, SVG Export Plug-In . SVG Version: 6.00 Build 0)  -->
<svg version="1.1" id="Layer_1" xmlns="http://www.w3.org/2000/svg" xmlns:xlink="http://www.w3.org/1999/xlink" x="0px" y="0px"
	 viewBox="0 0 125.49 10.13" style="enable-background:new 0 0 125.49 10.13;" xml:space="preserve">
<style type="text/css">
	.st0{fill:#C7CACD;}
</style>
<g>
	<path class="st0" d="M3.88,2.77c-0.05,0-0.1,0-0.15,0.01C3.69,2.79,3.65,2.81,3.61,2.83C3.48,3.3,3.35,3.79,3.19,4.29
		C3.03,4.8,2.87,5.28,2.7,5.75C2.53,6.23,2.37,6.66,2.22,7.07H2.18C1.92,6.4,1.68,5.74,1.46,5.09C1.24,4.43,1.01,3.76,0.78,3.06
		C0.74,2.97,0.7,2.89,0.66,2.85C0.61,2.8,0.53,2.77,0.43,2.77c-0.08,0-0.15,0.02-0.22,0.06S0.1,2.91,0.07,2.95
		c0.08,0.26,0.17,0.56,0.28,0.9S0.58,4.54,0.71,4.9S0.97,5.61,1.1,5.95C1.23,6.3,1.35,6.61,1.47,6.89s0.21,0.5,0.3,0.66
		c0.03,0.06,0.08,0.1,0.16,0.13C2.01,7.71,2.1,7.73,2.2,7.73c0.09,0,0.17-0.01,0.25-0.04C2.52,7.67,2.57,7.64,2.6,7.62
		C2.67,7.49,2.75,7.3,2.86,7.05C2.96,6.8,3.07,6.52,3.19,6.2c0.12-0.32,0.24-0.64,0.36-0.97s0.23-0.65,0.32-0.94
		s0.18-0.56,0.24-0.78S4.2,3.14,4.2,3.06c0-0.1-0.03-0.17-0.09-0.22C4.05,2.8,3.98,2.77,3.88,2.77z"/>
	<path class="st0" d="M7.82,3.92c-0.05,0-0.1,0.01-0.15,0.02S7.58,3.97,7.54,3.98C7.47,4.31,7.38,4.66,7.26,5.04
		C7.15,5.41,7.03,5.77,6.91,6.1S6.67,6.72,6.56,6.94H6.53C6.31,6.47,6.12,6.01,5.94,5.57C5.77,5.12,5.6,4.68,5.44,4.23
		C5.4,4.12,5.35,4.04,5.3,3.99C5.24,3.94,5.16,3.92,5.07,3.92c-0.07,0-0.13,0.02-0.2,0.05C4.81,4,4.77,4.04,4.73,4.09
		c0.12,0.37,0.25,0.74,0.39,1.1s0.27,0.69,0.4,0.98s0.24,0.52,0.33,0.69c0.1,0.18,0.18,0.31,0.26,0.38s0.16,0.12,0.25,0.14
		c-0.08,0.18-0.2,0.36-0.33,0.56C5.88,8.13,5.74,8.31,5.6,8.48s-0.28,0.3-0.4,0.4C5.22,8.96,5.26,9.04,5.32,9.1
		C5.39,9.16,5.48,9.2,5.6,9.2c0.17,0,0.36-0.12,0.56-0.36C6.37,8.6,6.59,8.25,6.84,7.8c0.13-0.23,0.25-0.49,0.38-0.77
		s0.24-0.58,0.35-0.87c0.11-0.3,0.21-0.58,0.29-0.84c0.08-0.26,0.15-0.5,0.2-0.7s0.07-0.34,0.07-0.43c0-0.09-0.03-0.16-0.09-0.2
		C7.98,3.94,7.91,3.92,7.82,3.92z"/>
	<path class="st0" d="M10.92,7.1c-0.07,0.04-0.17,0.08-0.28,0.11s-0.21,0.05-0.3,0.05c-0.21,0-0.38-0.04-0.5-0.13
		C9.71,7.04,9.65,6.89,9.65,6.68V5.81V5.57V4.6h1.14c0.07,0,0.13-0.02,0.18-0.07c0.04-0.05,0.06-0.11,0.06-0.2
		c0-0.05-0.01-0.1-0.02-0.15c-0.02-0.05-0.03-0.08-0.05-0.1H9.65V3.15c0-0.1-0.03-0.17-0.08-0.22S9.42,2.86,9.31,2.86
		c-0.06,0-0.12,0.01-0.18,0.02C9.08,2.9,9.03,2.91,9.01,2.92v2.66v0.24v0.9c0,0.38,0.12,0.66,0.35,0.82
		c0.23,0.17,0.53,0.25,0.91,0.25c0.25,0,0.44-0.04,0.58-0.11c0.14-0.08,0.21-0.17,0.21-0.29c0-0.06-0.01-0.12-0.04-0.17
		C10.98,7.17,10.95,7.13,10.92,7.1z"/>
	<path class="st0" d="M14.78,3.92c-0.11,0-0.2,0.02-0.27,0.06c-0.13,0.5-0.29,1.01-0.48,1.54s-0.39,1.06-0.6,1.6H13.4
		C13.36,7,13.3,6.85,13.23,6.66s-0.14-0.36-0.21-0.54s-0.13-0.33-0.17-0.46l-0.5-1.43c-0.04-0.11-0.08-0.19-0.14-0.24
		c-0.05-0.05-0.13-0.07-0.22-0.07c-0.06,0-0.13,0.02-0.19,0.05s-0.11,0.07-0.15,0.12c0.06,0.2,0.13,0.43,0.22,0.68
		c0.09,0.26,0.19,0.53,0.3,0.81c0.11,0.28,0.22,0.55,0.32,0.81c0.11,0.26,0.21,0.49,0.3,0.7c0.09,0.21,0.17,0.36,0.23,0.47
		c0.03,0.05,0.07,0.09,0.14,0.12s0.15,0.04,0.24,0.04c0.07,0,0.15-0.01,0.21-0.02c0.07-0.02,0.11-0.03,0.14-0.06
		c0.1-0.2,0.21-0.43,0.33-0.7s0.24-0.55,0.35-0.84c0.11-0.29,0.22-0.57,0.32-0.84c0.1-0.27,0.17-0.5,0.23-0.69
		c0.06-0.19,0.09-0.32,0.09-0.39c0-0.09-0.03-0.16-0.08-0.21C14.94,3.94,14.87,3.92,14.78,3.92z"/>
	<path class="st0" d="M18.47,4.13c-0.27-0.16-0.59-0.24-0.95-0.24s-0.68,0.08-0.96,0.24c-0.27,0.16-0.49,0.39-0.64,0.68
		c-0.15,0.29-0.23,0.64-0.23,1.04s0.07,0.74,0.22,1.03c0.15,0.29,0.36,0.52,0.64,0.68c0.27,0.16,0.6,0.24,0.96,0.24
		c0.37,0,0.69-0.08,0.96-0.24c0.27-0.16,0.48-0.39,0.63-0.68s0.22-0.64,0.22-1.03c0-0.4-0.08-0.75-0.23-1.04
		C18.96,4.51,18.74,4.29,18.47,4.13z M18.37,6.88c-0.21,0.25-0.49,0.38-0.85,0.38c-0.37,0-0.65-0.13-0.86-0.38
		c-0.21-0.25-0.31-0.6-0.31-1.05c0-0.44,0.11-0.79,0.32-1.04s0.49-0.38,0.85-0.38s0.65,0.13,0.85,0.38c0.21,0.25,0.31,0.6,0.31,1.04
		C18.68,6.28,18.58,6.63,18.37,6.88z"/>
	<path class="st0" d="M21.99,3.89c-0.29,0-0.56,0.03-0.8,0.1s-0.43,0.15-0.57,0.24c-0.11,0.07-0.18,0.14-0.23,0.21
		s-0.07,0.17-0.07,0.29v0.85v0.37v1.5c0,0.1,0.03,0.17,0.09,0.22s0.14,0.07,0.26,0.07c0.06,0,0.12-0.01,0.18-0.02
		c0.05-0.01,0.09-0.03,0.12-0.04V5.94V5.67V4.68c0.12-0.07,0.28-0.13,0.46-0.18c0.19-0.05,0.4-0.08,0.65-0.08
		c0.08,0,0.17,0.01,0.26,0.02s0.15,0.02,0.21,0.03c0.03-0.03,0.05-0.07,0.06-0.12s0.02-0.09,0.02-0.15
		C22.63,3.99,22.42,3.89,21.99,3.89z"/>
	<path class="st0" d="M25.73,4.09c-0.25-0.14-0.53-0.21-0.86-0.21c-0.26,0-0.49,0.04-0.71,0.13S23.75,4.23,23.6,4.4
		c-0.16,0.17-0.28,0.37-0.37,0.6S23.1,5.51,23.1,5.81c0,0.43,0.08,0.79,0.24,1.08c0.16,0.3,0.39,0.52,0.7,0.67s0.66,0.22,1.07,0.22
		c0.23,0,0.45-0.03,0.64-0.08c0.19-0.05,0.34-0.12,0.46-0.21c0.11-0.09,0.17-0.18,0.17-0.28c0-0.06-0.02-0.12-0.05-0.17
		s-0.08-0.09-0.14-0.13C26.07,7,25.92,7.07,25.74,7.15c-0.18,0.07-0.38,0.11-0.61,0.11c-0.42,0-0.75-0.11-1-0.33
		c-0.19-0.17-0.3-0.42-0.36-0.72l2.44-0.34c0.1-0.01,0.17-0.04,0.22-0.09s0.08-0.13,0.08-0.25c0-0.32-0.07-0.6-0.21-0.85
		C26.17,4.43,25.98,4.23,25.73,4.09z M23.73,5.71c0.01-0.4,0.11-0.73,0.31-0.95c0.22-0.24,0.49-0.36,0.82-0.36
		c0.32,0,0.57,0.09,0.75,0.28s0.28,0.43,0.3,0.72L23.73,5.71z"/>
	<path class="st0" d="M29.09,3.89c-0.29,0-0.55,0.04-0.78,0.11c-0.23,0.07-0.41,0.15-0.55,0.23c-0.11,0.07-0.19,0.14-0.24,0.21
		s-0.07,0.16-0.07,0.28v0.91v0.44v1.38c0,0.1,0.03,0.17,0.09,0.22s0.14,0.07,0.26,0.07c0.06,0,0.12-0.01,0.18-0.02
		c0.05-0.01,0.09-0.03,0.12-0.04V6.06V5.62V4.68c0.12-0.07,0.26-0.13,0.42-0.18c0.17-0.05,0.35-0.08,0.57-0.08
		c0.28,0,0.51,0.07,0.68,0.21s0.25,0.36,0.25,0.66v0.34v0.44v1.38c0,0.1,0.03,0.17,0.08,0.22c0.06,0.04,0.14,0.07,0.26,0.07
		c0.06,0,0.12-0.01,0.17-0.02c0.06-0.01,0.1-0.03,0.12-0.04V6.06V5.62V5.25c0-0.46-0.14-0.81-0.42-1.03
		C29.96,4,29.57,3.89,29.09,3.89z"/>
	<path class="st0" d="M33.55,3.56l0.73-0.71c0.07-0.07,0.13-0.13,0.16-0.18s0.05-0.11,0.05-0.18c0-0.07-0.04-0.14-0.11-0.2
		s-0.17-0.09-0.28-0.1l-0.78,0.87c-0.03,0.03-0.05,0.07-0.08,0.1S33.2,3.24,33.2,3.29c0,0.07,0.03,0.13,0.1,0.19
		S33.45,3.56,33.55,3.56z"/>
	<path class="st0" d="M34.28,4.09c-0.25-0.14-0.53-0.21-0.86-0.21c-0.26,0-0.49,0.04-0.71,0.13S32.3,4.23,32.15,4.4
		c-0.16,0.17-0.28,0.37-0.37,0.6s-0.13,0.51-0.13,0.81c0,0.43,0.08,0.79,0.24,1.08c0.16,0.3,0.39,0.52,0.7,0.67s0.66,0.22,1.07,0.22
		c0.23,0,0.45-0.03,0.64-0.08c0.19-0.05,0.34-0.12,0.46-0.21c0.11-0.09,0.17-0.18,0.17-0.28c0-0.06-0.02-0.12-0.05-0.17
		s-0.08-0.09-0.14-0.13C34.62,7,34.48,7.07,34.3,7.15c-0.18,0.07-0.38,0.11-0.61,0.11c-0.42,0-0.75-0.11-1-0.33
		c-0.19-0.17-0.3-0.42-0.36-0.72l2.44-0.34c0.1-0.01,0.17-0.04,0.22-0.09c0.05-0.05,0.08-0.13,0.08-0.25c0-0.32-0.07-0.6-0.21-0.85
		C34.73,4.43,34.53,4.23,34.28,4.09z M32.28,5.71c0.01-0.4,0.11-0.73,0.31-0.95c0.22-0.24,0.49-0.36,0.82-0.36
		c0.32,0,0.57,0.09,0.75,0.28s0.28,0.43,0.3,0.72L32.28,5.71z"/>
	<path class="st0" d="M39.13,5.57l-0.55-0.14c-0.18-0.04-0.31-0.11-0.4-0.2c-0.08-0.09-0.12-0.19-0.12-0.31
		c0-0.17,0.07-0.29,0.22-0.38c0.14-0.09,0.33-0.14,0.57-0.14c0.16,0,0.31,0.02,0.44,0.05c0.13,0.04,0.25,0.08,0.35,0.13
		s0.18,0.1,0.24,0.14c0.06-0.03,0.11-0.07,0.14-0.12c0.04-0.05,0.05-0.11,0.05-0.18c0-0.1-0.05-0.19-0.16-0.27
		c-0.1-0.08-0.25-0.15-0.44-0.2s-0.41-0.08-0.66-0.08c-0.47,0-0.82,0.1-1.05,0.31c-0.23,0.21-0.34,0.45-0.34,0.74
		c0,0.25,0.07,0.46,0.22,0.63s0.39,0.29,0.71,0.37l0.66,0.18c0.18,0.04,0.32,0.11,0.41,0.21s0.14,0.23,0.14,0.38
		c0,0.37-0.28,0.56-0.83,0.56c-0.25,0-0.46-0.04-0.66-0.13c-0.19-0.09-0.36-0.18-0.5-0.28c-0.06,0.05-0.11,0.1-0.14,0.16
		s-0.05,0.12-0.05,0.19c0,0.15,0.13,0.29,0.38,0.41c0.26,0.12,0.59,0.19,0.99,0.19c0.47,0,0.84-0.1,1.09-0.29s0.38-0.46,0.38-0.8
		c0-0.3-0.09-0.54-0.27-0.72C39.76,5.79,39.49,5.66,39.13,5.57z"/>
	<path class="st0" d="M45.23,4.09c-0.29-0.14-0.6-0.2-0.96-0.2c-0.26,0-0.48,0.03-0.68,0.1s-0.37,0.14-0.52,0.22
		c-0.12,0.07-0.19,0.14-0.23,0.2s-0.06,0.15-0.06,0.26v2.41V7.3v1.58c0,0.1,0.03,0.18,0.09,0.22c0.06,0.05,0.14,0.07,0.26,0.07
		c0.06,0,0.12-0.01,0.18-0.02c0.05-0.01,0.09-0.03,0.12-0.04V7.56c0.08,0.04,0.17,0.09,0.29,0.13c0.2,0.07,0.41,0.1,0.64,0.1
		c0.35,0,0.66-0.07,0.94-0.22c0.27-0.14,0.48-0.36,0.64-0.65c0.15-0.29,0.23-0.65,0.23-1.09c0-0.45-0.08-0.82-0.25-1.11
		S45.51,4.23,45.23,4.09z M45.17,6.92c-0.23,0.23-0.53,0.34-0.9,0.34c-0.23,0-0.42-0.04-0.59-0.12c-0.1-0.05-0.18-0.11-0.26-0.17
		V4.65c0.11-0.06,0.23-0.11,0.36-0.16c0.13-0.05,0.3-0.07,0.49-0.07c0.22,0,0.42,0.05,0.61,0.14C45.07,4.65,45.22,4.8,45.34,5
		c0.11,0.21,0.17,0.48,0.17,0.84C45.51,6.33,45.4,6.7,45.17,6.92z"/>
	<path class="st0" d="M49.72,4.13c-0.27-0.16-0.59-0.24-0.95-0.24s-0.68,0.08-0.96,0.24c-0.28,0.16-0.49,0.39-0.64,0.68
		c-0.15,0.29-0.23,0.64-0.23,1.04s0.08,0.74,0.22,1.03s0.36,0.52,0.64,0.68c0.27,0.16,0.6,0.24,0.96,0.24s0.69-0.08,0.96-0.24
		s0.48-0.39,0.63-0.68s0.22-0.64,0.22-1.03c0-0.4-0.08-0.75-0.23-1.04C50.2,4.51,49.99,4.29,49.72,4.13z M49.62,6.88
		c-0.21,0.25-0.49,0.38-0.85,0.38c-0.37,0-0.65-0.13-0.86-0.38s-0.31-0.6-0.31-1.05c0-0.44,0.11-0.79,0.32-1.04s0.49-0.38,0.85-0.38
		c0.36,0,0.65,0.13,0.85,0.38c0.21,0.25,0.31,0.6,0.31,1.04C49.93,6.28,49.82,6.63,49.62,6.88z"/>
	<path class="st0" d="M54.39,2.45c-0.06,0-0.12,0.01-0.17,0.02c-0.06,0.01-0.1,0.03-0.12,0.04v1.61c-0.1-0.06-0.2-0.11-0.33-0.15
		c-0.19-0.06-0.38-0.09-0.59-0.09c-0.33,0-0.63,0.07-0.91,0.2c-0.28,0.14-0.5,0.35-0.66,0.64s-0.24,0.66-0.24,1.13
		c0,0.45,0.08,0.82,0.25,1.11s0.39,0.5,0.69,0.63c0.29,0.13,0.63,0.2,1.02,0.2c0.26,0,0.48-0.03,0.68-0.09s0.35-0.13,0.46-0.2
		c0.1-0.06,0.17-0.12,0.21-0.18s0.07-0.14,0.07-0.24V4.52V4.36V2.73c0-0.1-0.03-0.17-0.08-0.22C54.6,2.47,54.51,2.45,54.39,2.45z
		 M53.77,7.2c-0.12,0.04-0.27,0.06-0.46,0.06c-0.39,0-0.7-0.11-0.94-0.33c-0.24-0.22-0.35-0.57-0.35-1.06
		c0-0.36,0.06-0.64,0.17-0.86s0.26-0.37,0.45-0.46s0.39-0.14,0.61-0.14s0.41,0.04,0.57,0.11c0.11,0.05,0.19,0.12,0.28,0.18v2.35
		C54,7.11,53.89,7.16,53.77,7.2z"/>
	<path class="st0" d="M58.4,4.09c-0.29-0.14-0.6-0.2-0.96-0.2c-0.26,0-0.48,0.03-0.68,0.1s-0.37,0.14-0.52,0.22
		c-0.12,0.07-0.19,0.14-0.23,0.2s-0.06,0.15-0.06,0.26v2.41V7.3v1.58c0,0.1,0.03,0.18,0.09,0.22c0.06,0.05,0.14,0.07,0.26,0.07
		c0.06,0,0.12-0.01,0.18-0.02c0.05-0.01,0.09-0.03,0.12-0.04V7.56c0.08,0.04,0.17,0.09,0.29,0.13c0.2,0.07,0.41,0.1,0.64,0.1
		c0.35,0,0.66-0.07,0.94-0.22c0.27-0.14,0.48-0.36,0.64-0.65c0.15-0.29,0.23-0.65,0.23-1.09c0-0.45-0.08-0.82-0.25-1.11
		S58.68,4.23,58.4,4.09z M58.34,6.92c-0.23,0.23-0.53,0.34-0.9,0.34c-0.23,0-0.42-0.04-0.59-0.12c-0.1-0.05-0.18-0.11-0.26-0.17
		V4.65c0.11-0.06,0.23-0.11,0.36-0.16c0.13-0.05,0.3-0.07,0.49-0.07c0.22,0,0.42,0.05,0.61,0.14C58.24,4.65,58.39,4.8,58.51,5
		c0.11,0.21,0.17,0.48,0.17,0.84C58.68,6.33,58.57,6.7,58.34,6.92z"/>
	<path class="st0" d="M62.89,4.13c-0.27-0.16-0.59-0.24-0.95-0.24s-0.68,0.08-0.96,0.24c-0.28,0.16-0.49,0.39-0.64,0.68
		c-0.15,0.29-0.23,0.64-0.23,1.04s0.08,0.74,0.22,1.03s0.36,0.52,0.64,0.68c0.27,0.16,0.6,0.24,0.96,0.24s0.69-0.08,0.96-0.24
		s0.48-0.39,0.63-0.68s0.22-0.64,0.22-1.03c0-0.4-0.08-0.75-0.23-1.04C63.37,4.51,63.16,4.29,62.89,4.13z M62.79,6.88
		c-0.21,0.25-0.49,0.38-0.85,0.38c-0.37,0-0.65-0.13-0.86-0.38s-0.31-0.6-0.31-1.05c0-0.44,0.11-0.79,0.32-1.04s0.49-0.38,0.85-0.38
		c0.36,0,0.65,0.13,0.85,0.38C63,5.04,63.1,5.39,63.1,5.83C63.1,6.28,62.99,6.63,62.79,6.88z"/>
	<path class="st0" d="M66.41,3.89c-0.29,0-0.56,0.03-0.8,0.1c-0.24,0.07-0.43,0.15-0.57,0.24c-0.11,0.07-0.18,0.14-0.23,0.21
		c-0.04,0.07-0.07,0.17-0.07,0.29v0.85v0.37v1.5c0,0.1,0.03,0.17,0.09,0.22c0.06,0.04,0.14,0.07,0.26,0.07
		c0.06,0,0.12-0.01,0.18-0.02c0.05-0.01,0.09-0.03,0.12-0.04V5.94V5.67V4.68c0.12-0.07,0.28-0.13,0.46-0.18s0.4-0.08,0.65-0.08
		c0.09,0,0.17,0.01,0.26,0.02c0.08,0.01,0.15,0.02,0.21,0.03C67,4.44,67.02,4.4,67.03,4.35c0.02-0.05,0.02-0.09,0.02-0.15
		C67.05,3.99,66.83,3.89,66.41,3.89z"/>
	<path class="st0" d="M70.29,4.13c-0.27-0.16-0.59-0.24-0.95-0.24s-0.68,0.08-0.96,0.24c-0.28,0.16-0.49,0.39-0.64,0.68
		s-0.23,0.64-0.23,1.04s0.08,0.74,0.22,1.03s0.36,0.52,0.64,0.68c0.27,0.16,0.6,0.24,0.96,0.24s0.69-0.08,0.96-0.24
		s0.48-0.39,0.63-0.68s0.22-0.64,0.22-1.03c0-0.4-0.08-0.75-0.23-1.04C70.77,4.51,70.56,4.29,70.29,4.13z M70.19,6.88
		c-0.21,0.25-0.49,0.38-0.85,0.38c-0.37,0-0.65-0.13-0.86-0.38s-0.31-0.6-0.31-1.05c0-0.44,0.11-0.79,0.32-1.04s0.49-0.38,0.85-0.38
		s0.65,0.13,0.85,0.38c0.21,0.25,0.31,0.6,0.31,1.04C70.49,6.28,70.39,6.63,70.19,6.88z"/>
	<path class="st0" d="M75.26,4.02C75.2,3.97,75.12,3.95,75,3.95c-0.06,0-0.12,0.01-0.17,0.02C74.77,3.98,74.73,4,74.7,4.01v1.6v0.42
		v1.03c-0.09,0.05-0.2,0.09-0.35,0.14s-0.33,0.07-0.54,0.07c-0.32,0-0.57-0.08-0.75-0.22c-0.18-0.15-0.27-0.39-0.27-0.74V6.02V5.61
		V4.25c0-0.11-0.03-0.18-0.08-0.23c-0.06-0.05-0.14-0.07-0.25-0.07c-0.06,0-0.12,0.01-0.18,0.02S72.18,4,72.16,4.01v1.6v0.42v0.31
		c0,0.33,0.06,0.6,0.19,0.82s0.32,0.38,0.56,0.48c0.25,0.1,0.55,0.16,0.9,0.16c0.3,0,0.57-0.03,0.78-0.1
		c0.22-0.06,0.39-0.13,0.5-0.2c0.11-0.06,0.18-0.13,0.21-0.2c0.03-0.07,0.04-0.16,0.04-0.27V6.02V5.61V4.25
		C75.34,4.14,75.31,4.06,75.26,4.02z"/>
	<path class="st0" d="M117.3,7.61V7.22h-2.84V5.29h2.5V4.9h-2.5V3.14h2.77V2.75h-3.23v4.85H117.3z M118.3,7.61V5.46h1.04
		c0.22,0,0.45-0.02,0.67-0.06c0.22-0.04,0.42-0.11,0.6-0.22c0.18-0.1,0.32-0.24,0.43-0.41c0.11-0.18,0.17-0.4,0.17-0.67
		c0-0.18-0.02-0.35-0.07-0.52s-0.13-0.31-0.25-0.44s-0.28-0.22-0.49-0.29c-0.21-0.07-0.46-0.1-0.78-0.1h-1.78V7.6L118.3,7.61
		L118.3,7.61z M118.3,5.07V3.14h1.19c0.44,0,0.76,0.08,0.96,0.24s0.3,0.39,0.3,0.69c0,0.21-0.03,0.37-0.1,0.5
		c-0.06,0.13-0.16,0.23-0.28,0.3c-0.12,0.07-0.26,0.13-0.43,0.15c-0.17,0.02-0.37,0.04-0.58,0.04C119.35,5.07,118.3,5.07,118.3,5.07
		z M122.16,7.61V5.22h2.87v2.38h0.46V2.75h-0.46v2.08h-2.88V2.75h-0.46v4.85H122.16z"/>
	<path class="st0" d="M80.79,5.02c0.56,0,1-0.45,1-1c0-0.56-0.45-1-1-1c-1.34,0-2.61,1.76-2.88,2.16c0.18,0.27,0.84,1.19,1.67,1.74
		c-0.06-0.19-0.09-0.38-0.09-0.58C79.49,5.6,80.08,5.02,80.79,5.02"/>
	<path class="st0" d="M85.98,5.17c-0.18-0.27-0.84-1.19-1.67-1.74c0.06,0.19,0.09,0.38,0.09,0.58c0,0.72-0.58,1.3-1.3,1.3
		c-0.56,0-1,0.45-1,1c0,0.56,0.45,1,1,1C84.44,7.33,85.71,5.56,85.98,5.17"/>
	<path class="st0" d="M84.1,4.01c0-1.34-1.76-2.61-2.16-2.88c-0.27,0.18-1.19,0.84-1.74,1.67c0.19-0.06,0.38-0.09,0.58-0.09
		c0.72,0,1.3,0.58,1.3,1.3c0,0.56,0.45,1,1,1C83.65,5.02,84.1,4.57,84.1,4.01"/>
	<path class="st0" d="M81.94,9.2c0.27-0.18,1.19-0.84,1.74-1.67c-0.19,0.06-0.38,0.09-0.58,0.09c-0.72,0-1.3-0.58-1.3-1.3
		c0-0.56-0.45-1-1-1c-0.56,0-1,0.45-1,1C79.78,7.65,81.54,8.93,81.94,9.2"/>
	<polygon class="st0" points="88.99,3.38 88.98,3.38 88.98,7.61 88.52,7.61 88.52,2.75 89.04,2.75 91.84,6.99 91.86,6.99 
		91.86,2.75 92.31,2.75 92.31,7.61 91.78,7.61 	"/>
	<g>
		<g>
			<path class="st0" d="M95.39,5.77c-0.17,0.07-0.34,0.12-0.52,0.14c-0.18,0.02-0.35,0.04-0.53,0.06c-0.31,0.02-0.55,0.1-0.73,0.21
				c-0.18,0.12-0.26,0.29-0.26,0.53c0,0.11,0.02,0.2,0.06,0.28c0.04,0.08,0.1,0.14,0.17,0.2c0.07,0.05,0.15,0.09,0.24,0.11
				c0.1,0.02,0.18,0.04,0.28,0.04c0.16,0,0.32-0.02,0.47-0.06c0.15-0.04,0.29-0.1,0.41-0.18c0.12-0.08,0.22-0.19,0.29-0.32
				s0.11-0.28,0.11-0.45L95.39,5.77L95.39,5.77z M94.71,5.57c0.08-0.01,0.17-0.02,0.27-0.04c0.1-0.02,0.19-0.04,0.26-0.07
				c0.06-0.03,0.11-0.09,0.13-0.16s0.02-0.14,0.02-0.21c0-0.21-0.06-0.37-0.2-0.51c-0.14-0.14-0.36-0.2-0.67-0.2
				c-0.14,0-0.27,0.02-0.38,0.04c-0.12,0.02-0.22,0.06-0.3,0.13c-0.09,0.06-0.16,0.14-0.22,0.24c-0.06,0.1-0.1,0.23-0.11,0.38H93.1
				c0.02-0.21,0.06-0.38,0.14-0.53s0.18-0.26,0.31-0.36s0.28-0.16,0.45-0.2c0.17-0.04,0.35-0.06,0.53-0.06
				c0.18,0,0.34,0.02,0.49,0.06c0.15,0.04,0.29,0.1,0.41,0.18c0.11,0.08,0.21,0.19,0.27,0.33c0.06,0.14,0.1,0.31,0.1,0.51v1.9
				c0,0.16,0.03,0.25,0.09,0.3c0.06,0.04,0.17,0.03,0.34-0.03v0.32c-0.03,0.01-0.08,0.02-0.14,0.04c-0.06,0.02-0.12,0.02-0.18,0.02
				c-0.06,0-0.13-0.01-0.18-0.02c-0.06-0.01-0.12-0.03-0.16-0.06c-0.04-0.03-0.07-0.07-0.1-0.12c-0.02-0.05-0.04-0.1-0.05-0.15
				c-0.01-0.06-0.02-0.12-0.02-0.18c-0.17,0.19-0.37,0.33-0.59,0.43c-0.22,0.1-0.46,0.15-0.72,0.15c-0.15,0-0.3-0.02-0.44-0.06
				c-0.14-0.04-0.26-0.1-0.37-0.19c-0.11-0.09-0.19-0.19-0.25-0.31c-0.06-0.13-0.1-0.27-0.1-0.44c0-0.59,0.41-0.94,1.22-1.05
				L94.71,5.57z"/>
			<path class="st0" d="M99.31,5.85c0-0.2-0.02-0.38-0.08-0.57C99.17,5.1,99.09,4.94,99,4.82c-0.1-0.14-0.22-0.24-0.37-0.32
				c-0.14-0.08-0.31-0.12-0.49-0.12c-0.22,0-0.39,0.04-0.55,0.13c-0.15,0.08-0.28,0.2-0.37,0.34c-0.1,0.14-0.17,0.31-0.22,0.5
				c-0.05,0.19-0.06,0.4-0.06,0.61c0,0.22,0.03,0.41,0.09,0.58c0.06,0.17,0.14,0.31,0.25,0.43c0.11,0.12,0.23,0.21,0.37,0.26
				c0.14,0.06,0.3,0.09,0.47,0.09c0.19,0,0.36-0.04,0.5-0.11c0.15-0.08,0.27-0.18,0.37-0.31c0.1-0.14,0.18-0.29,0.22-0.47
				C99.28,6.25,99.31,6.06,99.31,5.85 M99.31,2.75h0.41v4.85h-0.41V6.99h-0.02c-0.06,0.12-0.14,0.22-0.22,0.3
				c-0.1,0.09-0.19,0.16-0.3,0.22s-0.22,0.1-0.34,0.14c-0.12,0.03-0.23,0.05-0.34,0.05c-0.29,0-0.53-0.05-0.72-0.14
				c-0.2-0.1-0.36-0.22-0.49-0.39c-0.13-0.17-0.22-0.36-0.28-0.58s-0.09-0.46-0.09-0.72c0-0.24,0.03-0.48,0.1-0.7
				c0.06-0.22,0.16-0.42,0.29-0.59c0.13-0.17,0.29-0.3,0.49-0.41c0.2-0.1,0.42-0.15,0.69-0.15c0.25,0,0.49,0.06,0.71,0.17
				c0.22,0.11,0.41,0.27,0.53,0.49L99.31,2.75L99.31,2.75z"/>
			<path class="st0" d="M101.5,3.74l0.75-0.94h0.52l-0.92,0.94C101.84,3.74,101.5,3.74,101.5,3.74z M102.78,5.77
				c-0.17,0.07-0.34,0.12-0.52,0.14c-0.18,0.02-0.35,0.04-0.53,0.06c-0.31,0.02-0.55,0.1-0.73,0.21c-0.18,0.12-0.26,0.29-0.26,0.53
				c0,0.11,0.02,0.2,0.06,0.28c0.04,0.08,0.1,0.14,0.17,0.2c0.07,0.05,0.15,0.09,0.24,0.11c0.1,0.02,0.18,0.04,0.28,0.04
				c0.16,0,0.32-0.02,0.47-0.06c0.15-0.04,0.29-0.1,0.41-0.18c0.12-0.08,0.22-0.19,0.29-0.32c0.07-0.13,0.11-0.28,0.11-0.45
				L102.78,5.77L102.78,5.77z M102.1,5.57c0.08-0.01,0.17-0.02,0.27-0.04c0.1-0.02,0.19-0.04,0.26-0.07
				c0.06-0.03,0.11-0.09,0.13-0.16s0.02-0.14,0.02-0.21c0-0.21-0.06-0.37-0.2-0.51c-0.14-0.14-0.36-0.2-0.67-0.2
				c-0.14,0-0.27,0.02-0.38,0.04c-0.12,0.02-0.22,0.06-0.3,0.13c-0.09,0.06-0.16,0.14-0.22,0.24c-0.06,0.1-0.1,0.23-0.11,0.38h-0.41
				c0.02-0.21,0.06-0.38,0.14-0.53s0.18-0.26,0.31-0.36s0.28-0.16,0.45-0.2c0.17-0.04,0.35-0.06,0.53-0.06
				c0.18,0,0.34,0.02,0.49,0.06c0.15,0.04,0.29,0.1,0.41,0.18c0.11,0.08,0.21,0.19,0.27,0.33c0.06,0.14,0.1,0.31,0.1,0.51v1.9
				c0,0.16,0.03,0.25,0.09,0.3c0.06,0.04,0.17,0.03,0.34-0.03v0.32c-0.03,0.01-0.08,0.02-0.14,0.04c-0.06,0.02-0.12,0.02-0.18,0.02
				c-0.06,0-0.13-0.01-0.18-0.02c-0.06-0.01-0.12-0.03-0.16-0.06c-0.04-0.03-0.07-0.07-0.1-0.12c-0.02-0.05-0.04-0.1-0.05-0.15
				c-0.01-0.06-0.02-0.12-0.02-0.18c-0.17,0.19-0.37,0.33-0.59,0.43c-0.22,0.1-0.46,0.15-0.72,0.15c-0.15,0-0.3-0.02-0.44-0.06
				c-0.14-0.04-0.26-0.1-0.37-0.19c-0.11-0.09-0.19-0.19-0.25-0.31c-0.06-0.13-0.1-0.27-0.1-0.44c0-0.59,0.41-0.94,1.22-1.05
				L102.1,5.57z"/>
			<path class="st0" d="M106.48,5.22c-0.07-0.26-0.2-0.46-0.37-0.61c-0.18-0.14-0.4-0.22-0.67-0.22c-0.21,0-0.38,0.04-0.53,0.13
				c-0.15,0.09-0.27,0.2-0.37,0.34c-0.1,0.14-0.17,0.3-0.21,0.48c-0.05,0.18-0.06,0.36-0.06,0.53c0,0.18,0.02,0.37,0.06,0.54
				c0.04,0.18,0.11,0.33,0.21,0.47c0.1,0.14,0.22,0.25,0.37,0.33c0.15,0.08,0.33,0.13,0.54,0.13c0.3,0,0.54-0.08,0.73-0.25
				s0.29-0.4,0.35-0.69h0.43c-0.04,0.19-0.1,0.37-0.18,0.53c-0.08,0.16-0.18,0.29-0.3,0.41c-0.13,0.11-0.27,0.21-0.44,0.26
				c-0.17,0.06-0.37,0.1-0.59,0.1c-0.28,0-0.52-0.05-0.72-0.14c-0.2-0.1-0.37-0.22-0.5-0.39c-0.13-0.17-0.23-0.36-0.29-0.58
				c-0.06-0.22-0.1-0.46-0.1-0.72c0-0.24,0.03-0.48,0.1-0.7c0.07-0.22,0.18-0.42,0.3-0.59c0.14-0.17,0.3-0.3,0.5-0.41
				c0.2-0.1,0.43-0.15,0.69-0.15c0.41,0,0.73,0.1,0.98,0.29c0.25,0.19,0.41,0.49,0.47,0.9C106.9,5.22,106.48,5.22,106.48,5.22z"/>
		</g>
	</g>
	<path class="st0" d="M107.58,4.12h0.41v3.49h-0.41V4.12z M107.55,2.75H108v0.6h-0.45V2.75z"/>
	<g>
		<g>
			<path class="st0" d="M111.06,5.77c-0.17,0.07-0.34,0.12-0.52,0.14c-0.18,0.02-0.35,0.04-0.53,0.06c-0.31,0.02-0.55,0.1-0.73,0.21
				c-0.18,0.12-0.26,0.29-0.26,0.53c0,0.11,0.02,0.2,0.06,0.28c0.04,0.08,0.1,0.14,0.17,0.2c0.07,0.05,0.15,0.09,0.24,0.11
				c0.1,0.02,0.18,0.04,0.28,0.04c0.16,0,0.32-0.02,0.47-0.06c0.15-0.04,0.29-0.1,0.41-0.18c0.12-0.08,0.22-0.19,0.29-0.32
				c0.07-0.13,0.11-0.28,0.11-0.45L111.06,5.77L111.06,5.77z M110.38,5.57c0.08-0.01,0.17-0.02,0.27-0.04
				c0.1-0.02,0.19-0.04,0.26-0.07c0.06-0.03,0.11-0.09,0.13-0.16s0.02-0.14,0.02-0.21c0-0.21-0.06-0.37-0.2-0.51
				c-0.14-0.14-0.36-0.2-0.67-0.2c-0.14,0-0.27,0.02-0.38,0.04c-0.12,0.02-0.22,0.06-0.3,0.13s-0.16,0.14-0.22,0.24
				c-0.06,0.1-0.1,0.23-0.11,0.38h-0.41c0.02-0.21,0.06-0.38,0.14-0.53c0.08-0.14,0.18-0.26,0.31-0.36c0.13-0.1,0.28-0.16,0.45-0.2
				c0.17-0.04,0.35-0.06,0.53-0.06c0.18,0,0.34,0.02,0.49,0.06c0.15,0.04,0.29,0.1,0.41,0.18s0.21,0.19,0.27,0.33
				c0.06,0.14,0.1,0.31,0.1,0.51v1.9c0,0.16,0.03,0.25,0.09,0.3c0.06,0.04,0.17,0.03,0.34-0.03v0.32c-0.03,0.01-0.08,0.02-0.14,0.04
				c-0.06,0.02-0.12,0.02-0.18,0.02c-0.06,0-0.13-0.01-0.18-0.02c-0.06-0.01-0.12-0.03-0.16-0.06c-0.04-0.03-0.07-0.07-0.1-0.12
				c-0.02-0.05-0.04-0.1-0.05-0.15c-0.01-0.06-0.02-0.12-0.02-0.18c-0.17,0.19-0.37,0.33-0.59,0.43c-0.22,0.1-0.46,0.15-0.72,0.15
				c-0.15,0-0.3-0.02-0.44-0.06c-0.14-0.04-0.26-0.1-0.37-0.19c-0.11-0.09-0.19-0.19-0.25-0.31c-0.06-0.13-0.1-0.27-0.1-0.44
				c0-0.59,0.41-0.94,1.22-1.05L110.38,5.57z"/>
		</g>
	</g>
</g>
</svg>
