<?xml version="1.0" encoding="utf-8"?>
<!-- Generator: Adobe Illustrator 24.2.3, SVG Export Plug-In . SVG Version: 6.00 Build 0)  -->
<svg version="1.1" id="Layer_1" xmlns="http://www.w3.org/2000/svg" xmlns:xlink="http://www.w3.org/1999/xlink" x="0px" y="0px"
	 viewBox="0 0 103.48 42.71" style="enable-background:new 0 0 103.48 42.71;" xml:space="preserve">
<style type="text/css">
	.st0{fill:#02528F;}
	.st1{fill-rule:evenodd;clip-rule:evenodd;fill:#FFFFFF;}
	.st2{fill:#FFFFFF;}
</style>
<g>
	<path class="st0" d="M103.48,37.04c0,3.12-2.55,5.67-5.67,5.67H5.67C2.55,42.71,0,40.16,0,37.04V5.67C0,2.55,2.55,0,5.67,0h92.15
		c3.12,0,5.67,2.55,5.67,5.67V37.04z"/>
</g>
<path class="st1" d="M30.49,35.97c-2.29-0.18-8.09-0.71-9.09-0.8c-1-0.08-1.7-0.23-1.86-0.31c0.04-0.18,0.15-0.31,0.15-0.31
	s7.3,0.59,9.53,0.69c-0.04-0.35,0.02-1.09,0.06-1.2c0.04-0.1,0.12-0.61,0.1-0.91c-1.68-0.35-4.27-1.05-5.86-1.47
	c-1.59-0.42-5.13-1.29-7.75-1.9c-2.63-0.61-4.74-1.09-5.85-1.34c-0.27,0.19-0.94,0.64-1.73,1.19c-0.02-0.07-0.05-0.13-0.07-0.2
	c0.81-0.55,1.42-0.98,1.53-1.05c-0.48-0.08-1.17-0.27-1.6-0.37c-0.12-0.03-0.24-0.06-0.36-0.1c-0.04-0.17-0.08-0.34-0.12-0.51
	c0.66,0.12,2.01,0.38,2.68,0.53c1.05-0.72,8.89-6.11,9.38-6.45c0.49-0.34,1.56-1.93,1.77-1.97c0.21-0.05,0.43-0.33,0.6-0.58
	c0.52-0.74,0.76-1.38,0.76-1.38s0.78-0.66,0.86-0.89c0.08-0.23,0.62-0.7,0.87-0.78c0.25-0.08,1.11-1.09,1.44-1.44
	c0.33-0.34,0.97-0.86,1.11-1.04c0.27-0.35,0.37-0.71,0.61-0.99c0.58-0.66,1.54-1.4,2.51-1.91c0.5-0.27,1.14-0.39,1.14-0.39
	s0.38-0.71,0.84-0.47c0.08-0.81,0.47-2.08,0.92-2.37c0.87-0.56,1.63-0.76,2.76-0.25c0.66,0.3,1.12,1.43,1.01,2.11
	c-0.11,0.68-0.31,1.03-0.32,1.21c-0.01,0.18-0.22,0.19-0.31,0.2c-0.09,0.01-0.38,0.17-0.43,0.37c-0.08,0.31-0.11,0.77-0.29,0.77
	c-0.18-0.01-0.26-0.13-0.33-0.1c-0.07,0.03-0.2,0.22-0.32,0.17c-0.12-0.06-0.29-0.17-0.33,0.01c-0.04,0.17,0.08,0.3-0.08,0.35
	c-0.16,0.05-0.18,0.28-0.18,0.28s0.82,0.9,1.11,1.15c0.34-0.24,0.73-0.35,1.44-0.52c0.71-0.17,1.41-0.64,1.66-0.81
	c0.25-0.17,0.43-0.16,0.55-0.14c0.12,0.02,1.48-0.94,1.85-1.19c0.25-0.17,0.3,0.04,0.36,0.19c0.07,0.14,0.24,0.29,0.45,0.42
	c0.21,0.13,0.08,0.34,0.07,0.48c0,0.14-0.2,0.26-0.29,0.2c-0.09-0.06-0.13-0.34-0.24-0.31c-0.11,0.03,0.08,0.28,0.02,0.44
	c-0.06,0.16-0.13,0.19-0.13,0.19s-0.07,0.4-0.17,0.42c0.01,0.18-0.06,0.28-0.26,0.29c-0.19,0.01-0.37-0.01-0.37-0.01L33.53,30.8
	c0,0,0.37,0.51-0.36,0.31c-0.73-0.2,0.15-0.37,0.15-0.37l6.44-16.9l0.09-0.6l-0.37,0.06c0,0-1,0.46-1.39,0.61
	c-0.39,0.15-0.69,0.53-1.15,0.67c-0.46,0.14-1.45,0.6-1.87,0.58c-0.72-0.04-1.8-0.99-2.11-1.18c-0.07,0.4-0.36,0.92-0.84,1.49
	c-0.19,0.33-0.57,0.88-0.57,0.88s-0.58,1.2-1.41,2.34c-0.2,0.27-0.54,0.79-0.56,1.13c-0.03,0.33-0.1,1.36-0.1,1.6
	c0.22,0.39,0.84,1.45,1.34,2.76c0.51,1.3,0.8,2.46,0.87,2.69c0.06,0.23,0.03,0.74-0.12,1.07c-0.15,0.33-0.43,0.69-0.43,1.27
	c0,0.58-0.06,1.44-0.15,1.81c-0.08,0.37-0.14,1.07-0.05,1.18c0.08,0.11,0.23,0.47,0.22,0.73c0.62,0.04,2.46,0.22,3.03-0.03
	c-0.11,0.23-0.48,0.78-2.68,0.66c0.22,0.2,0.33,0.27,0.93,0.61c0.61,0.34,1.29,0.45,1.41,0.61c0.12,0.16,0.18,0.55,0.18,0.55
	s0.68,0.07,0.88,0.08c0.19,0.01,0.42,0.12,0.38,0.24c-0.04,0.12,0.28,0.17,0.28,0.17s5.67,0.46,8.21,0.63
	c2.55,0.17,7.26,0.54,7.85,0.5c0.59-0.04,1.78-0.26,2.38-0.69c0.01,0.16-0.37,0.61-0.82,0.83c-0.45,0.22-0.99,0.43-2.01,0.4
	c-1.03-0.03-8-0.6-10.28-0.74C38.59,36.59,32.78,36.15,30.49,35.97z M22.45,26c-0.73,0.29-1.89,0.72-2.29,0.99
	c-0.4,0.27-0.47,0.32-0.47,0.32s-0.43,0.34-0.58,0.51c-0.15,0.17-0.04,0.28-0.1,0.37c-0.06,0.09-0.29,0.34-0.18,0.59
	c0.12,0.25,0.41,0.52,0.32,0.96c0.45,0.12,0.71,0.32,0.71,0.32s3.18,0.86,5.12,1.38c1.94,0.52,3.69,0.98,4.3,1.12
	c0-0.41-0.21-1.23-0.33-1.7c-0.19-0.71,0.1-1.92,0.28-2.62c0.18-0.7,0.08-0.98-0.1-1.18c-0.19-0.2-0.84-0.82-1.3-1.4
	c-0.46-0.58-0.75-1.49-1.12-1.96c-0.44,0.52-1.67,1.66-2.3,1.81C23.8,25.68,23.18,25.71,22.45,26z M17.72,29.45l-7.06-1.44
	c0,0,9.5-6.39,9.92-6.63c0.41-0.23,0.46,0.17,0.71,0.04c0.25-0.13,0.78-0.27,0.89-0.52c0.11-0.24,0.3-0.55,0.51-0.71
	c0.22-0.15,0.59-0.71,1.06-1.01c0.47-0.3,1.1-0.86,1.38-1.17c0.27-0.31,0.59-0.72,0.94-0.68c-0.33,0.32-0.47,0.94-0.79,1.51
	c-0.32,0.57-0.37,1.68-0.3,2.12c0.06,0.34-0.24,0.77-0.49,1.13c-0.26,0.36-0.6,1-0.93,1.49c-0.33,0.48-0.53,0.57-1.16,0.58
	c-1.02,0.02-1.55,0.53-2.2,1.04c-0.65,0.51-1.58,1.5-2.46,1.4c-0.25-0.03-0.58-0.05-0.87,0.18c-0.29,0.24-0.08,0.86,0.21,1.05
	c0.29,0.19,0.49,0.54,0.57,0.85C17.74,28.99,17.72,29.45,17.72,29.45z"/>
<g>
	<path class="st2" d="M40.38,25.62l1.76-9.35h2.81l0.85,2.83c0.36,1.23,0.64,2.32,0.86,3.44h0.04c0.04-1.01,0.19-2.14,0.44-3.54
		l0.51-2.73h2.2l-1.76,9.35h-2.48l-0.94-3.05c-0.39-1.32-0.67-2.25-0.93-3.49H43.7c-0.11,0.93-0.36,2.41-0.65,3.97l-0.49,2.58H40.38
		z"/>
	<path class="st2" d="M53.33,25.62c0.03-0.39,0.06-0.79,0.07-1.18h-0.04c-0.58,1.01-1.43,1.33-2.15,1.33
		c-1.22,0-2.11-0.94-2.11-2.43c0-2.27,1.44-4.7,4.96-4.7c0.87,0,1.82,0.18,2.43,0.37l-0.73,3.58c-0.14,0.73-0.29,2.14-0.26,3.02
		H53.33z M53.84,20.46c-0.15-0.03-0.32-0.04-0.44-0.04c-1.1,0-1.83,1.48-1.83,2.48c0,0.64,0.28,0.97,0.68,0.97
		c0.43,0,1.01-0.43,1.3-2.04L53.84,20.46z"/>
	<path class="st2" d="M62.45,15.77l-0.75,3.66h0.03c0.44-0.46,1.16-0.79,1.97-0.79c1.39,0,2.05,1.14,2.05,2.36
		c0,2.26-1.43,4.77-4.62,4.77c-1.8,0-2.58-0.78-2.57-1.97c0-0.46,0.07-0.89,0.17-1.33l1.36-6.7H62.45z M61.09,22.63
		c-0.04,0.22-0.1,0.46-0.07,0.72c0.01,0.42,0.26,0.64,0.62,0.64c0.9,0,1.62-1.41,1.62-2.47c0-0.58-0.24-0.97-0.72-0.97
		c-0.58,0-1.16,0.58-1.36,1.59L61.09,22.63z"/>
	<path class="st2" d="M71.49,25.21c-0.92,0.44-1.98,0.54-2.66,0.54c-2.01,0-3.11-1.04-3.11-2.94c0-2.08,1.5-4.17,4.06-4.17
		c1.43,0,2.54,0.78,2.54,2.16c0,1.71-1.55,2.41-4.35,2.33c0.03,0.15,0.11,0.32,0.24,0.44c0.26,0.24,0.68,0.36,1.22,0.36
		c0.69,0,1.35-0.14,1.93-0.42L71.49,25.21z M70.12,20.79c0-0.24-0.22-0.44-0.61-0.44c-0.85,0-1.26,0.64-1.33,1.08
		c1.44,0.01,1.94-0.19,1.94-0.62V20.79z"/>
	<path class="st2" d="M72.22,24.2l1.76-1.83c0.57-0.58,1.03-1.01,1.76-1.64l0.03-0.03h-2.68l0.37-1.91h5.5l-0.28,1.48L77,22.04
		c-0.6,0.62-1.08,1.08-1.75,1.64l-0.01,0.03h2.94l-0.37,1.91h-5.84L72.22,24.2z M75.5,17.99l-1.08-2.16h1.48l0.53,1.03h0.03
		l0.75-1.03h1.61l-1.72,2.16H75.5z"/>
	<path class="st2" d="M78.59,25.62l1.86-9.84h2.36l-1.1,5.77h0.03c0.21-0.28,0.4-0.54,0.6-0.8l1.47-1.94h2.91l-2.87,2.83l1.83,3.99
		h-2.63l-1.01-2.73l-0.71,0.71l-0.37,2.02H78.59z"/>
	<path class="st2" d="M88.54,18.79l0.31,2.68c0.08,0.68,0.15,1.15,0.19,1.55h0.03c0.14-0.4,0.26-0.83,0.54-1.57l1.03-2.66h2.48
		l-2.37,4.78c-0.98,1.96-1.84,3.2-2.75,4.02c-0.8,0.75-1.8,1.1-2.27,1.16l-0.51-2.04c0.33-0.08,0.75-0.25,1.12-0.49
		c0.46-0.29,0.8-0.64,1.01-1.01c0.06-0.1,0.07-0.18,0.03-0.33l-1.33-6.1H88.54z"/>
	<path class="st2" d="M93.56,25.77c-0.75,0-1.26-0.54-1.26-1.28c0-0.85,0.64-1.59,1.54-1.59c0.76,0,1.3,0.54,1.3,1.32
		c0,0.92-0.67,1.55-1.57,1.55H93.56z M93.15,22.38l0.8-6.11h2.52l-1.53,6.11H93.15z"/>
</g>
</svg>
