<?xml version="1.0" encoding="utf-8"?>
<!-- Generator: Adobe Illustrator 24.2.3, SVG Export Plug-In . SVG Version: 6.00 Build 0)  -->
<svg version="1.1" id="Layer_1" xmlns="http://www.w3.org/2000/svg" xmlns:xlink="http://www.w3.org/1999/xlink" x="0px" y="0px"
	 viewBox="0 0 100.96 38.36" style="enable-background:new 0 0 100.96 38.36;" xml:space="preserve">
<style type="text/css">
	.st0{fill:#A6A6A6;}
	.st1{fill-rule:evenodd;clip-rule:evenodd;fill:#D9D9D9;}
	.st2{fill:#D9D9D9;}
	.st3{fill:#686969;}
</style>
<path class="st0" d="M59.27,14.16c-0.14-0.2-0.31-0.41-0.49-0.64c-0.18-0.23-0.37-0.47-0.57-0.73c-0.08-0.1-0.16-0.2-0.24-0.31
	c0.42-0.21,0.75-0.48,1-0.84c0.26-0.38,0.39-0.8,0.39-1.28c0-0.78-0.27-1.39-0.82-1.84C58,8.07,57.19,7.84,56.11,7.84
	c-0.38,0-0.75,0.02-1.11,0.06c-0.36,0.04-0.66,0.1-0.92,0.19c-0.15,0.06-0.27,0.13-0.36,0.21s-0.13,0.21-0.13,0.37v3.5v0.67v1.69
	c0,0.31,0.07,0.53,0.22,0.66s0.4,0.19,0.76,0.19c0.17,0,0.33-0.01,0.49-0.04s0.27-0.04,0.35-0.06v-2.45h0.88l1.19,1.85
	c0.14,0.22,0.29,0.39,0.45,0.52c0.16,0.13,0.38,0.2,0.67,0.2c0.23,0,0.44-0.07,0.62-0.2c0.18-0.13,0.31-0.32,0.38-0.56
	C59.53,14.52,59.41,14.36,59.27,14.16z M55.39,9.37c0.11-0.02,0.22-0.03,0.34-0.04c0.11-0.01,0.24-0.02,0.37-0.02
	c0.48,0,0.84,0.09,1.07,0.27c0.24,0.18,0.35,0.45,0.35,0.8s-0.12,0.62-0.37,0.8s-0.57,0.28-0.97,0.28h-0.79V9.37z"/>
<path class="st0" d="M65.72,12.46c0.14-0.12,0.2-0.31,0.2-0.56c0-0.5-0.12-0.93-0.35-1.31c-0.23-0.38-0.55-0.67-0.97-0.89
	s-0.89-0.33-1.45-0.33c-0.38,0-0.74,0.06-1.09,0.18c-0.35,0.12-0.66,0.3-0.94,0.55c-0.28,0.24-0.49,0.55-0.65,0.93
	c-0.16,0.38-0.24,0.82-0.24,1.33c0,0.7,0.14,1.28,0.42,1.74c0.28,0.46,0.66,0.81,1.15,1.04s1.04,0.35,1.66,0.35
	c0.42,0,0.8-0.04,1.13-0.12c0.33-0.08,0.59-0.2,0.78-0.36c0.19-0.16,0.28-0.36,0.28-0.6c0-0.14-0.04-0.28-0.12-0.41
	c-0.08-0.13-0.18-0.23-0.29-0.3c-0.18,0.11-0.42,0.21-0.72,0.31c-0.3,0.09-0.61,0.14-0.95,0.14c-0.42,0-0.78-0.09-1.08-0.28
	c-0.24-0.15-0.39-0.39-0.49-0.7l3.13-0.46C65.4,12.66,65.58,12.58,65.72,12.46z M61.92,11.97c0.03-0.38,0.14-0.7,0.35-0.91
	c0.24-0.24,0.54-0.37,0.91-0.37c0.34,0,0.6,0.09,0.78,0.28s0.28,0.4,0.3,0.63L61.92,11.97z"/>
<path class="st0" d="M72.4,10.67c-0.27-0.44-0.64-0.77-1.11-0.98s-1.02-0.32-1.63-0.32c-0.46,0-0.87,0.05-1.24,0.15
	c-0.37,0.1-0.67,0.23-0.91,0.38c-0.16,0.1-0.28,0.22-0.37,0.35c-0.08,0.13-0.13,0.3-0.13,0.5v3.47v0.46v2.05
	c0,0.31,0.08,0.53,0.23,0.65c0.16,0.12,0.4,0.18,0.74,0.18c0.17,0,0.32-0.01,0.47-0.04c0.14-0.02,0.25-0.05,0.32-0.07v-2.19
	c0.09,0.04,0.17,0.08,0.28,0.11c0.24,0.07,0.51,0.11,0.8,0.11c0.57,0,1.07-0.12,1.51-0.35c0.44-0.23,0.79-0.58,1.04-1.03
	s0.38-1.02,0.38-1.7C72.8,11.69,72.67,11.11,72.4,10.67z M70.62,13.65c-0.24,0.28-0.59,0.42-1.03,0.42c-0.26,0-0.48-0.05-0.67-0.14
	c-0.05-0.03-0.09-0.06-0.14-0.09v-2.86c0.1-0.06,0.23-0.11,0.37-0.15c0.14-0.04,0.31-0.07,0.5-0.07c0.27,0,0.51,0.06,0.71,0.17
	c0.2,0.11,0.35,0.29,0.46,0.52c0.11,0.24,0.16,0.55,0.16,0.93C70.99,12.95,70.87,13.37,70.62,13.65z"/>
<path class="st0" d="M79.73,12.43c0,0.62-0.12,1.17-0.37,1.63s-0.6,0.81-1.06,1.06c-0.46,0.25-0.99,0.37-1.61,0.37
	s-1.15-0.12-1.61-0.37s-0.81-0.6-1.06-1.06c-0.25-0.46-0.37-1.01-0.37-1.64c0-0.62,0.13-1.16,0.38-1.62S74.64,10,75.1,9.74
	s0.99-0.38,1.59-0.38c0.61,0,1.14,0.13,1.6,0.38c0.46,0.25,0.81,0.61,1.06,1.07C79.6,11.27,79.73,11.81,79.73,12.43z M76.69,10.77
	c-0.38,0-0.67,0.14-0.89,0.43c-0.22,0.29-0.33,0.7-0.33,1.22c0,0.54,0.11,0.95,0.32,1.24c0.22,0.29,0.52,0.43,0.9,0.43
	c0.39,0,0.69-0.15,0.91-0.44s0.32-0.7,0.32-1.23c0-0.52-0.11-0.93-0.32-1.22C77.37,10.92,77.07,10.77,76.69,10.77z"/>
<path class="st0" d="M83.59,9.38c-0.41,0-0.8,0.05-1.17,0.14c-0.37,0.09-0.69,0.22-0.95,0.38c-0.19,0.12-0.34,0.26-0.45,0.41
	c-0.11,0.16-0.16,0.35-0.16,0.57v1.26v0.46v1.97c0,0.31,0.08,0.53,0.23,0.65c0.16,0.12,0.4,0.18,0.74,0.18
	c0.17,0,0.32-0.01,0.47-0.04c0.14-0.02,0.25-0.04,0.32-0.06v-2.7v-0.42v-1.08c0.18-0.1,0.38-0.18,0.62-0.23
	c0.24-0.05,0.48-0.08,0.73-0.08c0.13,0,0.25,0,0.37,0.01c0.12,0.01,0.21,0.02,0.29,0.04c0.06-0.08,0.1-0.17,0.14-0.28
	c0.04-0.11,0.05-0.23,0.05-0.35C84.81,9.65,84.41,9.38,83.59,9.38z"/>
<path class="st0" d="M89.05,13.94c-0.1,0.04-0.22,0.07-0.36,0.1c-0.14,0.02-0.27,0.04-0.4,0.04c-0.26,0-0.46-0.05-0.6-0.15
	c-0.14-0.1-0.22-0.27-0.22-0.5v-0.98v-0.3v-1.09h1.25c0.18,0,0.33-0.06,0.44-0.17c0.11-0.11,0.16-0.29,0.16-0.53
	c0-0.14-0.02-0.28-0.06-0.4s-0.08-0.21-0.12-0.28h-1.67V8.84c0-0.31-0.08-0.53-0.23-0.65c-0.16-0.12-0.4-0.18-0.74-0.18
	c-0.16,0-0.31,0.01-0.46,0.04c-0.14,0.03-0.25,0.05-0.32,0.08v4.01v0.3v1.1c0,0.69,0.19,1.18,0.56,1.48
	c0.37,0.3,0.89,0.45,1.55,0.45c0.53,0,0.9-0.09,1.12-0.26c0.22-0.17,0.33-0.39,0.33-0.67c0-0.14-0.02-0.25-0.07-0.35
	S89.11,14.01,89.05,13.94z"/>
<path class="st0" d="M59.46,20.05c-0.09-0.07-0.22-0.1-0.4-0.1c-0.1,0-0.18,0.01-0.26,0.03c-0.08,0.02-0.14,0.04-0.19,0.05v2.42
	c0,0.66,0.01,1.33,0.02,2.03c0.01,0.63,0.06,1.24,0.12,1.84l-0.06,0.01c-0.07-0.15-0.17-0.35-0.29-0.58s-0.25-0.48-0.39-0.74
	c-0.14-0.26-0.27-0.5-0.4-0.71l-2.29-3.84c-0.11-0.2-0.24-0.34-0.37-0.41s-0.3-0.11-0.49-0.11c-0.14,0-0.26,0.02-0.38,0.06
	c-0.12,0.04-0.21,0.09-0.27,0.16v0.68v0.36v5.74c0,0.15,0.04,0.26,0.13,0.33s0.22,0.1,0.4,0.1c0.09,0,0.17-0.01,0.26-0.03
	s0.15-0.04,0.19-0.05v-3.59c0-0.32-0.01-0.66-0.02-1.01c-0.01-0.36-0.03-0.7-0.05-1.04c-0.02-0.25-0.04-0.46-0.06-0.66l0.05-0.01
	c0.07,0.15,0.17,0.35,0.3,0.58s0.26,0.48,0.41,0.74c0.14,0.26,0.28,0.5,0.4,0.71l2.28,3.84c0.11,0.2,0.24,0.34,0.37,0.41
	s0.3,0.11,0.49,0.11c0.14,0,0.26-0.02,0.37-0.06c0.11-0.04,0.2-0.09,0.28-0.14v-0.7v-0.36v-0.05v-5.69
	C59.59,20.23,59.54,20.12,59.46,20.05z"/>
<path class="st0" d="M63.54,27.47c-0.75,0-1.33-0.15-1.75-0.44s-0.62-0.72-0.62-1.28c0-0.52,0.17-0.92,0.52-1.19s0.83-0.44,1.45-0.5
	l1.7-0.17v-0.34c0-0.4-0.12-0.69-0.36-0.88s-0.56-0.28-0.97-0.28c-0.33,0-0.64,0.05-0.94,0.14c-0.3,0.1-0.57,0.2-0.8,0.32
	c-0.06-0.06-0.12-0.12-0.17-0.2c-0.05-0.08-0.08-0.15-0.08-0.23c0-0.21,0.12-0.37,0.35-0.48c0.22-0.11,0.47-0.2,0.75-0.26
	s0.59-0.09,0.91-0.09c0.7,0,1.25,0.16,1.66,0.47c0.41,0.31,0.61,0.8,0.61,1.48v2.84c0,0.18-0.03,0.31-0.1,0.4
	c-0.07,0.09-0.17,0.18-0.31,0.26c-0.19,0.1-0.45,0.2-0.77,0.29S63.94,27.47,63.54,27.47z M63.54,26.68c0.34,0,0.61-0.03,0.83-0.1
	c0.22-0.07,0.38-0.13,0.47-0.2v-1.74l-1.49,0.16c-0.42,0.03-0.72,0.12-0.92,0.28c-0.2,0.15-0.3,0.37-0.3,0.66
	c0,0.3,0.12,0.53,0.35,0.7C62.72,26.6,63.07,26.68,63.54,26.68z"/>
<path class="st0" d="M74.69,22.89c-0.23-0.43-0.54-0.75-0.94-0.97c-0.4-0.21-0.84-0.32-1.34-0.32c-0.42,0-0.78,0.07-1.08,0.21
	c-0.15,0.07-0.29,0.14-0.41,0.21v-2.15c0-0.15-0.04-0.26-0.13-0.33s-0.21-0.1-0.38-0.1c-0.1,0-0.19,0.01-0.27,0.03
	s-0.15,0.04-0.19,0.05v2.77v0.19v3.8c0,0.17,0.03,0.3,0.1,0.4c0.06,0.1,0.18,0.2,0.35,0.31c0.2,0.11,0.46,0.22,0.77,0.31
	c0.32,0.1,0.67,0.14,1.06,0.14c0.55,0,1.04-0.1,1.45-0.31c0.42-0.21,0.74-0.53,0.98-0.96c0.24-0.43,0.35-0.98,0.35-1.66
	C75.03,23.87,74.92,23.32,74.69,22.89z M73.56,26.15c-0.33,0.34-0.77,0.52-1.31,0.52c-0.3,0-0.56-0.04-0.79-0.12
	c-0.23-0.08-0.41-0.16-0.53-0.25v-3.39c0.14-0.12,0.3-0.23,0.49-0.33c0.25-0.12,0.53-0.19,0.85-0.19c0.52,0,0.95,0.17,1.28,0.51
	s0.5,0.88,0.5,1.63C74.06,25.27,73.9,25.81,73.56,26.15z"/>
<path class="st0" d="M81.25,24.44c0.08-0.08,0.12-0.2,0.12-0.38c0-0.48-0.11-0.91-0.32-1.28s-0.5-0.66-0.88-0.87
	c-0.37-0.21-0.8-0.31-1.29-0.31c-0.38,0-0.74,0.07-1.07,0.2s-0.61,0.32-0.85,0.57c-0.24,0.25-0.42,0.55-0.55,0.91
	s-0.2,0.76-0.2,1.22c0,0.64,0.12,1.18,0.37,1.63c0.24,0.44,0.59,0.78,1.04,1c0.45,0.22,0.99,0.34,1.6,0.34
	c0.35,0,0.67-0.04,0.95-0.12c0.28-0.08,0.51-0.19,0.68-0.32c0.17-0.13,0.26-0.27,0.26-0.43c0-0.1-0.03-0.18-0.08-0.26
	s-0.12-0.14-0.21-0.2c-0.16,0.13-0.38,0.25-0.65,0.36c-0.27,0.11-0.58,0.17-0.91,0.17c-0.63,0-1.13-0.17-1.49-0.5
	c-0.29-0.26-0.47-0.62-0.57-1.07l3.7-0.52C81.06,24.57,81.17,24.52,81.25,24.44z M77.16,24.35c0.02-0.61,0.17-1.09,0.48-1.43
	c0.32-0.36,0.73-0.53,1.23-0.53c0.48,0,0.86,0.14,1.13,0.43c0.27,0.28,0.42,0.65,0.46,1.09L77.16,24.35z"/>
<g>
	<path class="st0" d="M84.28,20.91c0.06,0.05,0.12,0.08,0.19,0.11c0.07,0.02,0.14,0.04,0.21,0.04c0.11,0,0.21-0.02,0.29-0.06
		c0.08-0.04,0.16-0.1,0.24-0.18l0.76-0.77c0.09-0.1,0.16-0.18,0.22-0.25c0.06-0.07,0.08-0.15,0.08-0.24c0-0.11-0.05-0.21-0.14-0.28
		c-0.09-0.08-0.22-0.12-0.38-0.13l-1.06,1.16l-0.73-0.85c-0.09-0.1-0.17-0.18-0.23-0.22c-0.07-0.04-0.15-0.07-0.26-0.07
		c-0.08,0-0.15,0.02-0.21,0.07c-0.06,0.04-0.11,0.1-0.14,0.17s-0.05,0.14-0.05,0.22l1.02,1.12C84.16,20.81,84.22,20.86,84.28,20.91z
		"/>
	<path class="st0" d="M86.93,26.68c-0.02-0.07-0.05-0.12-0.07-0.15H83.6l3.05-3.83c0.07-0.09,0.13-0.17,0.17-0.25
		s0.06-0.16,0.06-0.25s-0.02-0.17-0.05-0.24c-0.04-0.07-0.09-0.14-0.15-0.19h-0.13H86.3h-3.47c-0.11,0-0.2,0.03-0.26,0.1
		c-0.06,0.06-0.1,0.16-0.1,0.3c0,0.08,0.01,0.16,0.04,0.23c0.02,0.07,0.05,0.13,0.07,0.17h3.09l-3.05,3.82
		c-0.06,0.08-0.11,0.16-0.15,0.25c-0.04,0.08-0.07,0.17-0.07,0.27c0,0.08,0.02,0.16,0.05,0.23c0.04,0.08,0.08,0.14,0.14,0.19h0.07
		h0.31h3.61c0.12,0,0.21-0.03,0.28-0.1s0.1-0.17,0.1-0.29C86.96,26.82,86.95,26.74,86.93,26.68z"/>
</g>
<path class="st0" d="M90.29,24.4l1.93-1.69c0.13-0.1,0.23-0.2,0.29-0.29c0.07-0.09,0.1-0.19,0.1-0.3c0-0.14-0.05-0.25-0.16-0.33
	s-0.26-0.13-0.45-0.14l-2.63,2.55v-4.32c0-0.15-0.04-0.26-0.13-0.33s-0.21-0.1-0.38-0.1c-0.1,0-0.19,0.01-0.27,0.03
	s-0.15,0.04-0.19,0.05v4.56v0.47v2.38c0,0.15,0.04,0.26,0.13,0.33s0.22,0.1,0.38,0.1c0.1,0,0.18-0.01,0.26-0.03s0.14-0.04,0.18-0.05
	V24.7V24.6l2.42,2.44c0.1,0.1,0.21,0.19,0.31,0.25c0.1,0.06,0.21,0.1,0.33,0.1c0.15,0,0.27-0.05,0.37-0.16
	c0.09-0.1,0.15-0.24,0.16-0.42L90.29,24.4z"/>
<path class="st0" d="M95.16,26.07c-0.14-0.26-0.3-0.6-0.49-1.04c-0.19-0.44-0.39-0.92-0.59-1.46c-0.2-0.54-0.4-1.09-0.58-1.65
	c0.06-0.08,0.13-0.14,0.22-0.19s0.19-0.07,0.29-0.07c0.14,0,0.25,0.04,0.34,0.11c0.09,0.07,0.16,0.19,0.22,0.36
	c0.24,0.67,0.49,1.34,0.76,2c0.26,0.66,0.56,1.35,0.88,2.06h0.05c0.17-0.34,0.34-0.76,0.53-1.26c0.18-0.5,0.36-1.04,0.53-1.6
	c0.17-0.56,0.31-1.09,0.42-1.58c0.06-0.02,0.12-0.05,0.19-0.07c0.07-0.02,0.14-0.03,0.22-0.03c0.14,0,0.25,0.03,0.34,0.1
	s0.13,0.17,0.13,0.31c0,0.13-0.04,0.34-0.11,0.64c-0.07,0.3-0.17,0.65-0.29,1.04s-0.27,0.82-0.43,1.26
	c-0.16,0.44-0.34,0.88-0.53,1.31c-0.19,0.43-0.38,0.81-0.57,1.16c-0.37,0.68-0.7,1.2-1.01,1.57c-0.3,0.36-0.58,0.55-0.84,0.55
	c-0.18,0-0.33-0.05-0.43-0.14c-0.1-0.1-0.16-0.21-0.19-0.34c0.18-0.15,0.37-0.35,0.59-0.61c0.22-0.25,0.43-0.52,0.64-0.82
	s0.37-0.57,0.5-0.83c-0.14-0.04-0.26-0.11-0.38-0.22S95.3,26.34,95.16,26.07z"/>
<path class="st0" d="M99.79,26.77c0-0.19,0.06-0.35,0.18-0.48s0.28-0.19,0.49-0.19s0.37,0.06,0.49,0.19s0.18,0.29,0.18,0.48
	s-0.06,0.35-0.18,0.48s-0.28,0.19-0.49,0.19s-0.37-0.06-0.49-0.19S99.79,26.96,99.79,26.77z M100.96,20.32c0,0.24,0,0.55-0.01,0.94
	s-0.01,0.81-0.02,1.26c-0.01,0.45-0.03,0.9-0.04,1.34c-0.02,0.44-0.03,0.84-0.05,1.19c-0.05,0.03-0.11,0.06-0.17,0.08
	s-0.14,0.04-0.22,0.04c-0.11,0-0.2-0.02-0.28-0.07c-0.07-0.05-0.11-0.12-0.12-0.23c-0.02-0.23-0.03-0.55-0.05-0.96
	c-0.02-0.41-0.03-0.85-0.04-1.34c-0.01-0.48-0.01-0.96-0.02-1.42s-0.01-0.86-0.01-1.2c0.17-0.1,0.35-0.16,0.54-0.16
	c0.15,0,0.27,0.04,0.35,0.13S100.96,20.15,100.96,20.32z"/>
<path class="st1" d="M22.31,19.65c0,0-1.92-0.52-4.17-1.31c-0.88,0.52-5.46,2.63-5.46,2.63l-0.85-1.47c0,0,1.78-1.32,2.94-2.34
	c-1.86-0.65-3.33-1.17-3.33-1.17l-3.17,1.33l-2.29-4.53l4.9-2.11l1.51,2.91c0,0,1.48,0.48,3.36,1.09c-0.19-1.48-0.64-3.54-0.64-3.54
	l1.67-0.62c0,0,2.05,4.34,2.36,5.27c2.27,0.73,4.1,1.48,4.1,1.48s-0.45-1.85-0.82-4.1c-0.9-0.46-5.04-3.12-5.04-3.12l0.93-1.46
	c0,0,2.06,0.78,3.56,1.21c-0.3-1.86-0.54-3.34-0.54-3.34l-2.75-1.92l3.03-4.23l4.29,2.93l-1.93,2.74c0,0,0.28,1.47,0.63,3.32
	c1.26-0.92,2.93-2.36,2.93-2.36l1.38,1.05c0,0-2.97,3.93-3.67,4.66c0.43,2.25,0.63,4.14,0.63,4.14s1.47-1.33,3.35-2.8
	c-0.02-0.98,0.42-5.76,0.42-5.76l1.79,0.01c0,0,0.28,2.1,0.61,3.55c1.56-1.21,2.78-2.17,2.78-2.17l0.42-3.25l5.32,0.31l-0.6,5.05
	l-3.43-0.17c0,0-1.2,0.99-2.73,2.24c1.44,0.56,3.57,1.19,3.57,1.19l-0.3,1.68c0,0-5.02-0.41-6.03-0.6
	c-1.84,1.51-3.47,2.66-3.47,2.66s1.92,0.52,4.17,1.31c0.88-0.52,5.46-2.63,5.46-2.63l0.85,1.47c0,0-1.78,1.32-2.94,2.34
	c1.86,0.65,3.33,1.17,3.33,1.17l3.17-1.33l2.29,4.53l-4.9,2.11l-1.51-2.91c0,0-1.48-0.48-3.36-1.09c0.19,1.48,0.64,3.54,0.64,3.54
	l-1.67,0.62c0,0-2.05-4.34-2.36-5.27c-2.27-0.73-4.1-1.48-4.1-1.48s0.45,1.85,0.82,4.1c0.9,0.46,5.04,3.12,5.04,3.12l-0.93,1.46
	c0,0-2.06-0.78-3.56-1.21c0.3,1.86,0.54,3.34,0.54,3.34l2.75,1.92l-3.03,4.23l-4.29-2.93l1.93-2.74c0,0-0.28-1.47-0.63-3.32
	c-1.26,0.92-2.93,2.36-2.93,2.36l-1.38-1.05c0,0,2.97-3.93,3.67-4.66c-0.43-2.25-0.63-4.14-0.63-4.14s-1.47,1.33-3.35,2.8
	c0.02,0.98-0.42,5.76-0.42,5.76l-1.79-0.01c0,0-0.28-2.1-0.61-3.55c-1.56,1.21-2.78,2.17-2.78,2.17l-0.42,3.25l-5.32-0.31l0.6-5.05
	l3.43,0.17c0,0,1.2-0.99,2.73-2.24c-1.44-0.56-3.57-1.19-3.57-1.19l0.3-1.68c0,0,5.02,0.41,6.03,0.6
	C20.68,20.79,22.31,19.65,22.31,19.65z"/>
<g>
	<rect y="35.27" class="st2" width="5.1" height="0.88"/>
	<rect y="31.97" class="st2" width="2.55" height="0.88"/>
	<rect y="28.66" class="st2" width="2.55" height="0.88"/>
	<rect y="25.35" class="st2" width="2.55" height="0.88"/>
	<rect y="22.04" class="st2" width="2.55" height="0.88"/>
	<rect y="18.73" class="st2" width="5.1" height="0.88"/>
</g>
<g>
	<rect y="15.42" class="st2" width="2.55" height="0.88"/>
	<rect y="12.11" class="st2" width="2.55" height="0.88"/>
	<rect y="8.8" class="st2" width="2.55" height="0.88"/>
	<rect y="5.49" class="st2" width="2.55" height="0.88"/>
</g>
<rect y="2.18" class="st2" width="5.1" height="0.88"/>
<path class="st3" d="M27.56,28.23c-1.83-0.17-6.51-0.52-7.33-0.61s-1.38-0.17-1.47-0.26c0-0.17,0.09-0.26,0.09-0.26
	s5.87,0.43,7.7,0.52c0-0.26,0-0.87,0.09-0.95c0-0.09,0.09-0.43,0.09-0.69c-1.38-0.26-3.48-0.78-4.77-1.13
	c-1.28-0.35-4.13-0.95-6.23-1.47c-2.11-0.43-3.85-0.87-4.68-1.04c-0.18,0.17-0.73,0.52-1.38,0.87c0-0.09,0-0.09-0.09-0.17
	c0.64-0.43,1.19-0.78,1.19-0.78c-0.37-0.09-0.92-0.17-1.28-0.26c-0.09,0-0.18-0.09-0.28-0.09c0-0.09-0.09-0.26-0.09-0.35
	c0.55,0.09,1.65,0.26,2.2,0.43c0.83-0.52,7.15-4.68,7.52-4.94c0.37-0.26,1.28-1.47,1.47-1.47c0.18,0,0.37-0.26,0.46-0.43
	c0.46-0.61,0.64-1.04,0.64-1.04s0.64-0.52,0.73-0.69c0.09-0.17,0.46-0.52,0.73-0.61c0.18-0.09,0.92-0.87,1.19-1.13
	c0.28-0.26,0.83-0.69,0.92-0.78c0.18-0.26,0.28-0.52,0.46-0.78c0.28-0.35,1.01-0.87,1.83-1.3c0.37-0.17,0.92-0.26,0.92-0.26
	s0.28-0.52,0.64-0.35c0.09-0.61,0.37-1.56,0.73-1.82c0.73-0.43,1.28-0.61,2.2-0.17c0.55,0.26,0.92,1.13,0.83,1.65
	c-0.09,0.52-0.28,0.78-0.28,0.95s-0.18,0.17-0.28,0.17c-0.09,0-0.28,0.17-0.37,0.26c-0.09,0.26-0.09,0.61-0.28,0.61
	s-0.18-0.09-0.28-0.09c-0.09,0-0.18,0.17-0.28,0.09c-0.09,0-0.28-0.09-0.28,0c0,0.17,0.09,0.26-0.09,0.26
	c-0.09,0-0.18,0.17-0.18,0.17s0.64,0.69,0.92,0.87c0.28-0.17,0.55-0.26,1.19-0.43c0.64-0.17,1.1-0.52,1.38-0.61
	c0.18-0.09,0.37-0.09,0.46-0.09c0.09,0,1.19-0.69,1.47-0.95C35.9,8.99,36,9.08,36,9.25c0.09,0.09,0.18,0.26,0.37,0.35
	c0.18,0.09,0.09,0.26,0.09,0.35c0,0.09-0.18,0.17-0.28,0.17c-0.09,0-0.09-0.26-0.18-0.26s0.09,0.17,0,0.35
	c-0.09,0.09-0.09,0.17-0.09,0.17L36,10.64c0,0.17-0.09,0.17-0.18,0.26c-0.18,0-0.28,0-0.28,0l-5.5,13.43c0,0,0.28,0.35-0.28,0.26
	c-0.55-0.17,0.09-0.26,0.09-0.26l5.23-12.91l0.09-0.43l-0.28,0.09c0,0-0.83,0.35-1.1,0.43c-0.28,0.09-0.55,0.43-0.92,0.52
	c-0.37,0.09-1.19,0.43-1.47,0.43c-0.55,0-1.47-0.78-1.74-0.87c-0.09,0.35-0.28,0.69-0.64,1.13c-0.18,0.26-0.46,0.69-0.46,0.69
	s-0.46,0.95-1.1,1.82c-0.18,0.17-0.46,0.61-0.46,0.87c0,0.26-0.09,1.04-0.09,1.21c0.18,0.26,0.64,1.13,1.1,2.08
	c0.37,0.95,0.64,1.91,0.73,2.08c0.09,0.17,0,0.61-0.09,0.78c-0.09,0.26-0.37,0.52-0.37,0.95c0,0.43-0.09,1.13-0.09,1.39
	c-0.09,0.26-0.09,0.78,0,0.87c0.09,0.09,0.18,0.35,0.18,0.52c0.46,0,2.02,0.17,2.48,0c-0.09,0.17-0.37,0.61-2.2,0.52
	c0.18,0.17,0.28,0.17,0.73,0.43c0.46,0.26,1.01,0.35,1.1,0.43c0.09,0.09,0.18,0.43,0.18,0.43s0.55,0.09,0.73,0.09
	c0.18,0,0.37,0.09,0.28,0.17c0,0.09,0.18,0.09,0.18,0.09s4.58,0.35,6.6,0.52c2.02,0.09,5.87,0.43,6.33,0.35
	c0.46,0,1.47-0.17,1.93-0.52c0,0.09-0.28,0.43-0.64,0.61c-0.37,0.17-0.83,0.35-1.65,0.35c-0.83,0-6.42-0.43-8.25-0.52
	C34.07,28.75,29.4,28.41,27.56,28.23z M21.05,20.69c-0.55,0.26-1.56,0.52-1.83,0.78c-0.37,0.17-0.37,0.26-0.37,0.26
	s-0.37,0.26-0.46,0.35c-0.09,0.09,0,0.17-0.09,0.26c-0.09,0.09-0.28,0.26-0.18,0.43c0.09,0.17,0.37,0.43,0.28,0.69
	c0.37,0.09,0.55,0.26,0.55,0.26s2.57,0.69,4.13,1.04c1.56,0.43,2.93,0.78,3.48,0.87c0-0.35-0.18-0.95-0.28-1.3
	c-0.18-0.52,0.09-1.47,0.18-1.99c0.18-0.52,0.09-0.78-0.09-0.87c-0.18-0.17-0.64-0.61-1.01-1.04C25,20,24.72,19.31,24.45,18.96
	c-0.37,0.43-1.38,1.3-1.83,1.39S21.6,20.43,21.05,20.69z M17.2,22.69c-0.09-0.17-0.18-0.43-0.46-0.61
	c-0.28-0.17-0.55-0.69-0.28-0.87c0.28-0.17,0.55-0.17,0.73-0.17c0.73,0.09,1.47-0.69,2.02-1.04c0.46-0.35,0.92-0.78,1.74-0.78
	c0.46,0,0.64-0.09,0.92-0.43s0.55-0.87,0.73-1.13c0.18-0.26,0.46-0.61,0.37-0.87c0-0.35,0-1.21,0.28-1.65s0.37-0.87,0.64-1.13
	c-0.28,0-0.55,0.26-0.73,0.52c-0.18,0.17-0.73,0.61-1.1,0.87c-0.37,0.26-0.64,0.69-0.83,0.78c-0.18,0.09-0.37,0.35-0.46,0.52
	c-0.09,0.26-0.55,0.35-0.73,0.43c-0.18,0.09-0.18-0.17-0.55,0c-0.28,0.17-7.98,5.03-7.98,5.03l5.68,1.13
	C17.2,23.29,17.2,22.95,17.2,22.69z"/>
</svg>
