<?xml version="1.0" encoding="utf-8"?>
<!-- Generator: Adobe Illustrator 24.2.3, SVG Export Plug-In . SVG Version: 6.00 Build 0)  -->
<svg version="1.1" id="Layer_1" xmlns="http://www.w3.org/2000/svg" xmlns:xlink="http://www.w3.org/1999/xlink" x="0px" y="0px"
	 viewBox="0 0 21.05 21.03" style="enable-background:new 0 0 21.05 21.03;" xml:space="preserve">
<style type="text/css">
	.st0{fill:#B5B5B6;}
</style>
<g>
	<path class="st0" d="M10.52,0c0.4,0,0.86,0.03,1.36,0.09l0.7,2.79l0.09,0.02c0.6,0.17,1.17,0.41,1.72,0.71l0.09,0.04l2.46-1.47
		c0.75,0.59,1.38,1.23,1.91,1.93l-1.47,2.46l0.06,0.09c0.31,0.54,0.54,1.11,0.71,1.7l0.02,0.11l2.79,0.7
		c0.06,0.53,0.09,0.97,0.09,1.34c0,0.42-0.03,0.87-0.09,1.36l-2.79,0.7l-0.02,0.11c-0.18,0.6-0.42,1.17-0.71,1.71l-0.06,0.09
		l1.47,2.46c-0.59,0.75-1.22,1.39-1.91,1.92l-2.46-1.48l-0.09,0.05c-0.54,0.31-1.11,0.54-1.72,0.71l-0.09,0.04l-0.7,2.77
		c-0.53,0.06-0.98,0.09-1.36,0.09c-0.4,0-0.86-0.03-1.36-0.09l-0.7-2.77l-0.09-0.04c-0.6-0.17-1.17-0.41-1.72-0.71l-0.09-0.05
		l-2.46,1.48c-0.73-0.59-1.37-1.23-1.91-1.92l1.47-2.46l-0.06-0.09c-0.31-0.55-0.54-1.12-0.7-1.71l-0.04-0.11l-2.77-0.7
		C0.04,11.35,0,10.9,0,10.5c0-0.4,0.04-0.85,0.11-1.34l2.77-0.7l0.04-0.11c0.16-0.59,0.39-1.15,0.7-1.7l0.06-0.09L2.2,4.11
		c0.57-0.75,1.22-1.39,1.92-1.93l2.44,1.47l0.09-0.04C7.21,3.31,7.78,3.07,8.38,2.9l0.09-0.02l0.7-2.79C9.69,0.03,10.14,0,10.52,0z
		 M13.31,7.74c-0.77-0.77-1.7-1.16-2.79-1.16S8.51,6.97,7.74,7.74s-1.16,1.7-1.16,2.78s0.39,2.01,1.16,2.78
		c0.77,0.77,1.7,1.16,2.79,1.16s2.02-0.38,2.79-1.16c0.77-0.77,1.16-1.7,1.16-2.78S14.08,8.51,13.31,7.74z"/>
</g>
</svg>
