<?xml version="1.0" encoding="utf-8"?>
<!-- Generator: Adobe Illustrator 16.0.0, SVG Export Plug-In . SVG Version: 6.00 Build 0)  -->
<!DOCTYPE svg PUBLIC "-//W3C//DTD SVG 1.1//EN" "http://www.w3.org/Graphics/SVG/1.1/DTD/svg11.dtd">
<svg version="1.1" id="Layer_1" xmlns="http://www.w3.org/2000/svg" xmlns:xlink="http://www.w3.org/1999/xlink" x="0px" y="0px"
	 width="36.083px" height="35.917px" viewBox="0 0 36.083 35.917" enable-background="new 0 0 36.083 35.917" xml:space="preserve">
<g>
	<defs>
		<path id="SVGID_1_" d="M0.006,29.059c0,3.786,2.771,6.856,6.188,6.856h23.698c3.418,0,6.188-3.07,6.188-6.856V6.855
			c0-3.787-2.77-6.856-6.188-6.856H6.193c-3.417,0-6.188,3.07-6.188,6.856V29.059z"/>
	</defs>
	<clipPath id="SVGID_2_">
		<use xlink:href="#SVGID_1_"  overflow="visible"/>
	</clipPath>
	<g clip-path="url(#SVGID_2_)">
		<g>
			<rect x="0.005" y="0" fill="#00518F" width="36.073" height="35.916"/>
		</g>
	</g>
	<g id="Layer_1_1_" clip-path="url(#SVGID_2_)">
		<path fill="#FFD700" d="M20.164,29.33c-2.012-0.156-7.115-0.627-7.996-0.701c-0.882-0.072-1.498-0.203-1.637-0.27
			c0.037-0.152,0.134-0.275,0.134-0.275s6.422,0.521,8.385,0.606c-0.036-0.312,0.017-0.963,0.052-1.054
			c0.033-0.092,0.108-0.541,0.086-0.805c-1.479-0.312-3.756-0.924-5.154-1.295c-1.4-0.369-4.51-1.138-6.819-1.674
			c-2.31-0.537-4.173-0.964-5.144-1.181c-0.239,0.163-0.824,0.562-1.527,1.045c-0.019-0.062-0.04-0.114-0.059-0.174
			c0.709-0.488,1.253-0.863,1.347-0.929c-0.424-0.069-1.03-0.233-1.405-0.326c-0.108-0.023-0.213-0.057-0.312-0.086
			c-0.036-0.146-0.07-0.299-0.104-0.444c0.578,0.104,1.766,0.334,2.357,0.468c0.921-0.63,7.82-5.379,8.25-5.676
			c0.428-0.296,1.371-1.694,1.559-1.735c0.188-0.041,0.377-0.294,0.527-0.511c0.455-0.653,0.666-1.21,0.666-1.21
			s0.686-0.583,0.754-0.783c0.068-0.2,0.547-0.619,0.766-0.689c0.219-0.071,0.977-0.962,1.265-1.263
			c0.288-0.301,0.854-0.758,0.975-0.916c0.232-0.307,0.327-0.623,0.54-0.867c0.506-0.584,1.357-1.229,2.208-1.683
			c0.44-0.235,1.004-0.341,1.004-0.341s0.33-0.625,0.742-0.411c0.069-0.711,0.41-1.826,0.812-2.084
			c0.762-0.493,1.436-0.665,2.425-0.219c0.581,0.261,0.981,1.256,0.89,1.858c-0.097,0.602-0.275,0.906-0.281,1.062
			c-0.006,0.155-0.19,0.165-0.27,0.178c-0.078,0.014-0.341,0.154-0.385,0.33c-0.07,0.277-0.1,0.68-0.254,0.675
			c-0.154-0.005-0.229-0.116-0.292-0.087c-0.062,0.029-0.177,0.196-0.283,0.146c-0.106-0.049-0.26-0.146-0.295,0.007
			c-0.036,0.154,0.067,0.266-0.071,0.308c-0.141,0.042-0.162,0.243-0.162,0.243s0.727,0.794,0.979,1.008
			c0.301-0.208,0.646-0.306,1.271-0.457c0.625-0.151,1.24-0.566,1.465-0.714c0.222-0.148,0.377-0.143,0.482-0.124
			c0.108,0.019,1.299-0.828,1.633-1.051c0.221-0.148,0.262,0.04,0.318,0.166C29.667,7.522,29.815,7.651,30,7.765
			c0.183,0.115,0.064,0.297,0.062,0.421c-0.004,0.124-0.179,0.227-0.253,0.178c-0.076-0.049-0.115-0.298-0.209-0.271
			c-0.096,0.027,0.066,0.25,0.021,0.389c-0.055,0.138-0.115,0.167-0.115,0.167s-0.06,0.355-0.149,0.367
			c0.011,0.156-0.056,0.247-0.228,0.257c-0.17,0.01-0.323-0.01-0.323-0.01L22.84,24.775c0,0,0.328,0.445-0.317,0.271
			c-0.646-0.176,0.136-0.322,0.136-0.322L28.32,9.855l0.078-0.525l-0.331,0.05c0,0-0.883,0.406-1.229,0.535
			s-0.604,0.462-1.012,0.589c-0.406,0.127-1.271,0.528-1.646,0.507c-0.636-0.036-1.584-0.872-1.856-1.036
			c-0.06,0.355-0.32,0.812-0.74,1.311c-0.164,0.29-0.504,0.775-0.504,0.775s-0.516,1.054-1.245,2.055
			c-0.175,0.24-0.473,0.699-0.496,0.993c-0.025,0.294-0.085,1.192-0.092,1.409c0.191,0.348,0.736,1.28,1.18,2.426
			c0.445,1.146,0.709,2.163,0.764,2.366c0.057,0.203,0.025,0.652-0.105,0.943c-0.133,0.289-0.375,0.605-0.375,1.119
			s-0.056,1.271-0.128,1.596c-0.071,0.322-0.122,0.941-0.047,1.037c0.074,0.096,0.203,0.408,0.196,0.642
			c0.542,0.032,2.165,0.192,2.668-0.024c-0.103,0.199-0.425,0.688-2.358,0.578c0.195,0.176,0.287,0.241,0.819,0.537
			c0.532,0.297,1.136,0.393,1.238,0.535s0.155,0.486,0.155,0.486s0.604,0.062,0.771,0.07c0.168,0.006,0.369,0.104,0.334,0.213
			c-0.032,0.104,0.248,0.146,0.248,0.146s4.992,0.405,7.222,0.552c2.239,0.146,6.389,0.471,6.902,0.439
			c0.518-0.031,1.564-0.233,2.094-0.605c0.01,0.141-0.328,0.534-0.726,0.727c-0.396,0.189-0.869,0.379-1.771,0.353
			c-0.902-0.026-7.035-0.522-9.041-0.646C27.29,29.876,22.176,29.486,20.164,29.33z"/>
		<path fill="#00518F" d="M13.088,20.56c-0.643,0.259-1.664,0.63-2.012,0.867c-0.35,0.236-0.412,0.281-0.412,0.281
			s-0.383,0.299-0.512,0.449c-0.129,0.148-0.038,0.244-0.087,0.32C10.015,22.554,9.808,22.783,9.91,23
			c0.102,0.222,0.357,0.461,0.283,0.849c0.399,0.104,0.627,0.28,0.627,0.28s2.799,0.758,4.506,1.215
			c1.707,0.455,3.245,0.859,3.783,0.986c-0.003-0.355-0.183-1.086-0.293-1.5c-0.167-0.625,0.084-1.688,0.242-2.303
			c0.16-0.615,0.075-0.867-0.09-1.044c-0.166-0.176-0.738-0.721-1.141-1.229c-0.403-0.508-0.657-1.307-0.985-1.719
			c-0.388,0.454-1.472,1.458-2.02,1.594C14.276,20.271,13.732,20.3,13.088,20.56z"/>
		<path fill="#00518F" d="M8.929,23.593l-6.212-1.266c0,0,8.361-5.625,8.725-5.833c0.362-0.206,0.406,0.15,0.627,0.033
			c0.221-0.117,0.689-0.241,0.783-0.455c0.096-0.214,0.262-0.488,0.453-0.622c0.189-0.134,0.522-0.626,0.934-0.892
			c0.411-0.267,0.97-0.761,1.211-1.033c0.241-0.271,0.517-0.635,0.824-0.594c-0.287,0.286-0.413,0.824-0.692,1.328
			c-0.278,0.503-0.325,1.479-0.261,1.869c0.051,0.297-0.207,0.676-0.434,0.995c-0.228,0.319-0.523,0.884-0.816,1.309
			c-0.293,0.425-0.467,0.499-1.023,0.511c-0.9,0.02-1.365,0.471-1.938,0.916c-0.573,0.447-1.391,1.32-2.164,1.234
			c-0.216-0.023-0.51-0.049-0.765,0.16c-0.255,0.209-0.071,0.76,0.188,0.924c0.259,0.16,0.435,0.479,0.504,0.744
			C8.941,23.19,8.929,23.593,8.929,23.593z"/>
	</g>
</g>
</svg>
